<svg id="Layer_1" data-name="Layer 1" xmlns="http://www.w3.org/2000/svg" viewBox="0 0 385.1 668.18"><defs><style>.cls-1{fill:#b6ff9e;}</style></defs><path class="cls-1" d="M388.13,2H3V29.78H147.71l57,49.26L3,208.46V243l.06,0V243l203.66,19.21-44.3,59.11L3,354.91v52.84l84.14,14.06-84,112.1.12.09L3,534v52.85l385.11,83.3V641.53L31.53,565.84v-9L388.13,500V444L111.67,398.2l34.21-45.65L388.13,303V273.85h-.05L217,257.72l76.61-102.24,94.57,81.2V200.4l-77.82-67.27L388.12,30ZM359.62,467.32v8.95L10.82,532.78l82.4-110Zm-254-70.13L31.53,384.91v-9L137.82,354.2ZM370.08,277.65l-199.54,42,42.57-56.81ZM210.57,257.11,10.41,238.23l211.52-135h10.76l56.71,48.7Zm95.59-127.56L190.73,29.78H381.42Z" transform="translate(-3.02 -2.01)"/></svg>