<svg id="Layer_1" data-name="Layer 1" xmlns="http://www.w3.org/2000/svg" viewBox="0 0 384.45 513.61"><defs><style>.cls-1{fill:#b6ff9e;}</style></defs><path class="cls-1" d="M384.35,452.11,54.45,452l242.89-50.9V387h-85V338.37l172.06-115.8h0l-.1-13-164.72,1.36V176L379,100l-.86-1.8-160,76.26-.57.27V211l-3.92,0L54.13,103.75l150.56,0L348.08,11,341,.1h0L44.32,0V2l293.62.09L197.67,92.84l5.73,8.86-152.21,0v0l0,0-7.25,10.79,146.79,98.64L0,213.08.1,226l41.48-.62v50.11l168.79,62.3v63.27h76.79L44.4,452l0,2,332.22.14L126,511.66l.45,1.95,257.9-59.53Zm-340.77-178V225.39l337.23-2.79L211.92,336.26Z"/></svg>