<svg width="521" height="1081" viewBox="0 0 521 1081" fill="none" xmlns="http://www.w3.org/2000/svg">
<path d="M87.9414 3.40723L169.795 49.2091M257.885 99.0588L341.297 149.7L426.269 153.801L174.472 203.021L520.595 201.654L171.354 253.608L81.705 302.145H169.795L253.987 354.099H342.856L341.297 404.686H430.946L170.574 456.64L345.195 454.59L169.795 505.86" stroke="black" stroke-width="2"/>
<path d="M168.236 -30.827L260.226 100.426M299.201 12.0947L179.734 100.426" stroke="black" stroke-width="2"/>
<path d="M257.105 100.48L175.252 201.654" stroke="black" stroke-width="2"/>
<path d="M168.236 100.48L257.105 200.287" stroke="black" stroke-width="13"/>
<path d="M244.932 350.974L342.856 352.048" stroke="#B6FF9E" stroke-width="13"/>
<path d="M1 767.662L453.267 763.921" stroke="black" stroke-width="6"/>
<path d="M1 767.662L453.267 763.921" stroke="black" stroke-width="6"/>
<path d="M268.433 953.048H360.473" stroke="black" stroke-width="6"/>
<path d="M178.108 514.158H268.854V583.369H350.844L88.9534 639.485H447.162M88.9534 766.701L88.9534 826.54L196.244 856.673L268.854 892.945V955.608H360.396L78.6051 1016.4L454.326 1019.21L178.108 1080" stroke="black" stroke-width="2"/>
<path d="M447.072 639.296L276.594 720.578V762.621" stroke="black" stroke-width="2"/>
<path d="M452.513 765.795L268.538 893.914" stroke="black" stroke-width="2"/>
<path d="M268.888 541.211L409.139 538.033" stroke="black" stroke-width="2"/>
<path d="M410.8 539.549L266.166 651.538" stroke="black" stroke-width="6"/>
<path d="M267.723 651.286L101.189 648.012" stroke="black" stroke-width="2"/>
<path d="M100.675 649.725L268.433 764.888" stroke="black" stroke-width="6"/>
<line x1="87.705" y1="-30.7926" x2="87.7049" y2="6.12232" stroke="#B6FF9E" stroke-width="12"/>
<line y1="-6" x2="391.393" y2="-6" transform="matrix(0.992072 0.125668 -0.332331 0.943163 81.705 -15.5492)" stroke="#B6FF9E" stroke-width="12"/>
</svg>
