<svg xmlns="http://www.w3.org/2000/svg" viewBox="0 0 900.81 132.83" fill="#ffffff"><g id="Layer_2" data-name="Layer 2"><g id="Layer_1-2" data-name="Layer 1"><path d="M15.66,63.36,80.28,0H99.72L45.36,53.82v3.6l55.62,72H82.26L32.94,66.06,15.66,83.16v46.26H0V0H15.66Z"/><path d="M148.86,32.94c26.64,0,44.28,20.16,44.28,49.68s-17.64,49.85-44.28,49.85-44.28-20.33-44.28-49.85S122.22,32.94,148.86,32.94Zm0,86c17.64,0,29.52-14.94,29.52-36.36S166.5,46.44,148.86,46.44,119.34,61.2,119.34,82.62,131.22,119,148.86,119Z"/><path d="M293.94,0V129.42h-14V110.7h-1.8c-4,13.32-16.74,22.13-32,22.13-24.12,0-40.32-20-40.32-50.57,0-28.8,16.2-48.24,40.32-48.24,17.46,0,29.16,12.24,32,22.5h1.8V0ZM220.5,83.88c0,21.6,11.16,36.54,27.9,36.54s27.9-14.94,27.9-36.54-11.16-36.36-27.9-36.36S220.5,62.28,220.5,83.88Z"/><path d="M396.81,87.12V88H326.08c0,18.54,13.5,31,29.88,31,9.72,0,19.08-4.5,23.58-15.3l13.31,4a41,41,0,0,1-38.15,24.83c-26.64,0-43.56-20.33-43.56-49.85S328.24,32.94,354,32.94C383.32,32.94,396.81,53.1,396.81,87.12Zm-70.37-12.6h54.9c0-17.82-10.44-28.08-27.36-28.08C339.22,46.44,326.44,57.6,326.44,74.52Z"/><path d="M570.53,0,535.61,129.42h-29L488.27,11.52h-3.6l-20.51,117.9h-29L402.42,0H419l28.26,117.9h3.6L470.64,0h31.67L520,117.9h3.6L554,0Z"/><path d="M610.22,32.94c26.63,0,44.27,20.16,44.27,49.68s-17.64,49.85-44.27,49.85-44.28-20.33-44.28-49.85S583.58,32.94,610.22,32.94Zm0,86c17.63,0,29.51-14.94,29.51-36.36s-11.88-36.18-29.51-36.18S580.7,61.2,580.7,82.62,592.58,119,610.22,119Z"/><path d="M723.07,36.54V50H713c-11.16,0-20.52,8.1-25.38,19.8-1.8,4.32-2.88,11-2.88,16.56v43h-14V38.52h14v18h1.8c2.16-7.2,10.44-20,26.46-20Z"/><path d="M751.31,0V75.42h1.8l39.6-36.9h18.9L777.41,70.2V72l43.2,57.42H804.23L767,80.28,751.31,94.86v34.56h-14V0Z"/><path d="M862.77,119c14.58.54,22.32-4.86,23.22-13,1.08-9.54-9.18-13.5-25.2-18.18C845,83.16,828,76,830,56.34c1.44-14.58,14.58-24.12,34.92-23.4,16.92.54,33.48,13,34.56,31l-12.42,2.34c-1.44-13.32-12.24-19.8-23.4-19.8-12.06,0-18.36,3.78-19.44,11-1.44,10.08,9.18,13.86,24.12,18.36C884,80.46,902,88.56,900.75,105.84c-1.26,18.36-15.84,26.63-38.34,26.63-21.42,0-36-12.41-37.8-31.67l13.86-4C839.55,109.44,849.45,118.44,862.77,119Z"/></g></g></svg>
