<svg width="10" height="10" viewBox="0 0 10 10" fill="none" xmlns="http://www.w3.org/2000/svg">
<path d="M4.3 0.659999V-0.146688H3.49331V0.659999H4.3ZM5.86 0.659999H6.66669V-0.146688H5.86V0.659999ZM5.86 3.84H5.05331V5.30181L6.29006 4.52249L5.86 3.84ZM8.78 2L9.48169 1.60203L9.06482 0.867035L8.34994 1.31751L8.78 2ZM9.54 3.34L9.90257 4.06061L10.66 3.67953L10.2417 2.94203L9.54 3.34ZM6.36 4.94L5.99743 4.21939L5.55331 4.44284V4.94H6.36ZM6.36 5.14H5.55331V5.63716L5.99743 5.86061L6.36 5.14ZM9.54 6.74L10.2417 7.13797L10.66 6.40047L9.90257 6.01939L9.54 6.74ZM8.78 8.08L8.3533 8.7646L9.06687 9.20936L9.48169 8.47797L8.78 8.08ZM5.86 6.26L6.2867 5.5754L5.05331 4.80665V6.26H5.86ZM5.86 9.42V10.2267H6.66669V9.42H5.86ZM4.3 9.42H3.49331V10.2267H4.3V9.42ZM4.3 6.26H5.10669V4.81187L3.8754 5.5741L4.3 6.26ZM1.36 8.08L0.658314 8.47797L1.07186 9.20712L1.7846 8.7659L1.36 8.08ZM0.6 6.74L0.235599 6.02031L-0.51891 6.40234L-0.101686 7.13797L0.6 6.74ZM3.76 5.14L4.1244 5.85969L4.56669 5.63575V5.14H3.76ZM3.76 4.94H4.56669V4.44425L4.1244 4.22031L3.76 4.94ZM0.6 3.34L-0.101686 2.94203L-0.51891 3.67766L0.235599 4.05969L0.6 3.34ZM1.36 2L1.78796 1.31619L1.0739 0.869294L0.658314 1.60203L1.36 2ZM4.3 3.84L3.87204 4.52381L5.10669 5.29651V3.84H4.3ZM4.3 1.46669H5.86V-0.146688H4.3V1.46669ZM5.05331 0.659999V3.84H6.66669V0.659999H5.05331ZM6.29006 4.52249L9.21006 2.68249L8.34994 1.31751L5.42994 3.15751L6.29006 4.52249ZM8.07831 2.39797L8.83832 3.73797L10.2417 2.94203L9.48169 1.60203L8.07831 2.39797ZM9.17743 2.61939L5.99743 4.21939L6.72257 5.66061L9.90257 4.06061L9.17743 2.61939ZM5.55331 4.94V5.14H7.16669V4.94H5.55331ZM5.99743 5.86061L9.17743 7.46061L9.90257 6.01939L6.72257 4.41939L5.99743 5.86061ZM8.83832 6.34203L8.07831 7.68203L9.48169 8.47797L10.2417 7.13797L8.83832 6.34203ZM9.2067 7.3954L6.2867 5.5754L5.4333 6.9446L8.3533 8.7646L9.2067 7.3954ZM5.05331 6.26V9.42H6.66669V6.26H5.05331ZM5.86 8.61331H4.3V10.2267H5.86V8.61331ZM5.10669 9.42V6.26H3.49331V9.42H5.10669ZM3.8754 5.5741L0.935397 7.3941L1.7846 8.7659L4.7246 6.9459L3.8754 5.5741ZM2.06169 7.68203L1.30169 6.34203L-0.101686 7.13797L0.658314 8.47797L2.06169 7.68203ZM0.964401 7.45969L4.1244 5.85969L3.3956 4.42031L0.235599 6.02031L0.964401 7.45969ZM4.56669 5.14V4.94H2.95331V5.14H4.56669ZM4.1244 4.22031L0.964401 2.62031L0.235599 4.05969L3.3956 5.65969L4.1244 4.22031ZM1.30169 3.73797L2.06169 2.39797L0.658314 1.60203L-0.101686 2.94203L1.30169 3.73797ZM0.932039 2.68381L3.87204 4.52381L4.72796 3.15619L1.78796 1.31619L0.932039 2.68381ZM5.10669 3.84V0.659999H3.49331V3.84H5.10669Z" fill="black"/>
<path d="M4.3 0.659999H5.86V3.84L8.78 2L9.54 3.34L6.36 4.94V5.14L9.54 6.74L8.78 8.08L5.86 6.26V9.42H4.3V6.26L1.36 8.08L0.6 6.74L3.76 5.14V4.94L0.6 3.34L1.36 2L4.3 3.84V0.659999Z" fill="#B6FF9E"/>
</svg>
