<?xml version="1.0" encoding="utf-8"?>
<!-- Generator: Adobe Illustrator 25.1.0, SVG Export Plug-In . SVG Version: 6.00 Build 0)  -->
<svg version="1.1" id="Layer_1" xmlns="http://www.w3.org/2000/svg" xmlns:xlink="http://www.w3.org/1999/xlink" x="0px" y="0px"
	 viewBox="0 0 566.93 160.62" style="enable-background:new 0 0 566.93 160.62;" xml:space="preserve">
<style type="text/css">
	.st0{fill:#F7941D;}
	.st1{fill:#FF0000;}
	.st2{fill:#006838;}
	.st3{fill:#39B54A;}
	.st4{fill:#27AAE1;}
	.st5{fill:#0049BE;}
</style>
<circle class="st0" cx="204.95" cy="33.36" r="33.36"/>
<path class="st1" d="M204.8,160.62c-1.05,0-1.91-0.85-1.91-1.91l-0.07-50.68c0-1.05,0.85-1.91,1.91-1.91h0
	c1.05,0,1.91,0.85,1.91,1.91l0.07,50.68C206.71,159.76,205.85,160.61,204.8,160.62L204.8,160.62z"/>
<path class="st2" d="M50.22,59.98C22.48,59.98,0,82.46,0,110.2s22.48,50.22,50.22,50.22v0h50.22V110.2H50.22V59.98z"/>
<path class="st3" d="M100.44,5.97H56.71c-27.73,0-50.22,22.48-50.22,50.22h50.22h43.73v54h50.22v-54
	C150.65,28.46,128.17,5.97,100.44,5.97z"/>
<path class="st2" d="M516.71,106.41c27.73,0,50.22-22.48,50.22-50.22S544.45,5.97,516.71,5.97v0h-50.22v50.22h50.22V106.41z"/>
<path class="st3" d="M466.49,160.41h43.73c27.73,0,50.22-22.48,50.22-50.22h-50.22h-43.73v-54h-50.22v54
	C416.27,137.93,438.76,160.41,466.49,160.41z"/>
<g>
	<path class="st4" d="M321.69,57.81c3.77,0,6.82,3.05,6.82,6.82c0,1.8-0.7,3.44-1.85,4.66h0.01l-4.7,4.7
		c-0.71,0.75-0.71,1.93,0.03,2.66l0,0c0.75,0.74,1.96,0.74,2.7,0l69-69.06l-129.33,0v50.22C264.37,57.81,320.94,57.81,321.69,57.81z
		"/>
	<path class="st5" d="M308.97,110.32c-3.77,0-6.82-3.05-6.82-6.82c0-1.8,0.7-3.44,1.85-4.66h-0.01l4.7-4.7
		c0.71-0.75,0.71-1.93-0.03-2.66l0,0c-0.75-0.74-1.96-0.74-2.7,0l-69,69.06l150.69,0v-50.22
		C387.65,110.32,309.73,110.32,308.97,110.32z"/>
</g>
</svg>
