<svg id="Icon" xmlns="http://www.w3.org/2000/svg" width="119.677" height="30" viewBox="0 0 119.677 30">
  <g id="Group_17794" data-name="Group 17794">
    <g id="Group_17790" data-name="Group 17790" transform="translate(38.442 0.91)">
      <path id="Path_25330" data-name="Path 25330" d="M211.166,34.987a.839.839,0,0,1,.829.8c0,4.78.032,11.885.032,16.634a3.041,3.041,0,0,1-.7,2.2,9.529,9.529,0,0,1-7.264,3.122,10.724,10.724,0,0,1-7.9-3.281.82.82,0,0,1,.191-1.18l1.4-1.115a.909.909,0,0,1,1.243.16,7.433,7.433,0,0,0,5.066,2.072c1.18,0,4.079-.733,4.079-1.944V51.3c0-.223-.16-.382-.67-.128a8.366,8.366,0,0,1-12.3-7.808,8.616,8.616,0,0,1,8.6-8.826,8.1,8.1,0,0,1,3.951,1.146c.191.128.638.223.638-.1,0-.382.254-.6.764-.6h2.039Zm-3.027,5.576a2.091,2.091,0,0,0-.382-1.18,4.386,4.386,0,0,0-3.473-1.465,5.435,5.435,0,0,0,0,10.865,4.47,4.47,0,0,0,3.473-1.4,2.06,2.06,0,0,0,.382-1.243V40.561Z" transform="translate(-195.17 -28.647)" fill="#12161e"/>
      <path id="Path_25331" data-name="Path 25331" d="M295.725,14.116a2.284,2.284,0,0,0-1.052-2.135c-.67-.382-.414-1.02.16-1.02h3.92a.85.85,0,0,1,.861.829v15.1a.845.845,0,0,1-.861.8h-2.23a.831.831,0,0,1-.8-.8V14.116Zm4.142-7.3a2.23,2.23,0,1,1-2.23-2.2A2.21,2.21,0,0,1,299.867,6.818Z" transform="translate(-274.754 -4.62)" fill="#12161e"/>
      <path id="Path_25332" data-name="Path 25332" d="M351.017,41.369v9.559a.845.845,0,0,1-.861.8h-2.23a.831.831,0,0,1-.8-.8V41.369a3.437,3.437,0,0,0-3.569-3.441c-1.625,0-3.6.861-3.6,2.74v10.26a.845.845,0,0,1-.861.8h-2.23a.831.831,0,0,1-.8-.8V38.151a2.284,2.284,0,0,0-1.052-2.135c-.67-.382-.414-1.02.16-1.02h3.632a.809.809,0,0,1,.861.51c.128.319.382.382.733.128a6.9,6.9,0,0,1,10.611,5.736Z" transform="translate(-307.156 -28.655)" fill="#12161e"/>
      <path id="Path_25333" data-name="Path 25333" d="M432.471,17.56a.85.85,0,0,1,.861.829v2.2a.719.719,0,0,0,.764.764h1.371a.831.831,0,0,1,.8.8V23.9a.787.787,0,0,1-.8.8H434.1a.727.727,0,0,0-.764.8v8.125a1.017,1.017,0,0,0,.892,1.115h1.243a.77.77,0,0,1,.8.8V37.28a.831.831,0,0,1-.8.8h-1.243a4.6,4.6,0,0,1-4.747-4.461V25.494a.752.752,0,0,0-.8-.8h-.861a.805.805,0,0,1-.861-.8V22.149a.845.845,0,0,1,.861-.8h.861a.744.744,0,0,0,.8-.764v-2.2a.839.839,0,0,1,.8-.829h2.2Z" transform="translate(-381.305 -15.011)" fill="#12161e"/>
      <path id="Path_25334" data-name="Path 25334" d="M490.855,52.268a8.786,8.786,0,1,1,0-17.558,8.808,8.808,0,0,1,8.954,8.795v.382A1.18,1.18,0,0,1,498.566,45H486.459c-.382,0-.6.191-.479.6a5.092,5.092,0,0,0,4.875,3.313,5.69,5.69,0,0,0,4.652-2.2.777.777,0,0,1,1.115-.191l1.688,1.146a.843.843,0,0,1,.191,1.146,9.413,9.413,0,0,1-7.648,3.441Zm-4.747-11.215c-.191.445.1.573.479.573H494.9c.382,0,.7-.128.479-.573a5.076,5.076,0,0,0-4.524-3,5.189,5.189,0,0,0-4.747,3Z" transform="translate(-425.271 -28.783)" fill="#12161e"/>
      <path id="Path_25335" data-name="Path 25335" d="M581.945,11.655a2.284,2.284,0,0,0-1.052-2.135c-.67-.382-.414-1.02.159-1.02h3.92a.85.85,0,0,1,.861.829v20.68a.845.845,0,0,1-.861.8h-2.23a.831.831,0,0,1-.8-.8V11.655Z" transform="translate(-504.598 -7.736)" fill="#12161e"/>
    </g>
    <g id="Group_17793" data-name="Group 17793">
      <g id="Group_17791" data-name="Group 17791" transform="translate(19.917 3.851)">
        <path id="Path_25336" data-name="Path 25336" d="M104.805,45.06l8.966,8.4-3.685,3.876-8.966-8.4Z" transform="translate(-101.12 -40.035)" fill="#b58700"/>
        <path id="Path_25337" data-name="Path 25337" d="M101.12,28.451l8.46-8.9,3.9,3.658-8.458,8.9Z" transform="translate(-101.12 -19.55)" fill="#f2b400"/>
      </g>
      <g id="Group_17792" data-name="Group 17792">
        <path id="Path_25338" data-name="Path 25338" d="M13.571,18.578,0,5.868,5.576,0,19.145,12.71Z" fill="#982321"/>
        <path id="Path_25339" data-name="Path 25339" d="M20.912,41.965,8.109,55.437,2.2,49.9,15,36.43Z" transform="translate(-1.767 -29.255)" fill="#ca2f2c"/>
      </g>
    </g>
  </g>
</svg>
