<?xml version="1.0" encoding="UTF-8"?>
<svg width="119px" height="40px" viewBox="0 0 119 40" version="1.1" xmlns="http://www.w3.org/2000/svg" xmlns:xlink="http://www.w3.org/1999/xlink">
    <g stroke="none" stroke-width="1" fill="none" fill-rule="evenodd">
        <g transform="translate(-104.000000, -40.000000)">
            <g transform="translate(104.000000, 40.000000)">
                <path d="M27.4213598,3.36134454e-05 C26.5470503,3.29112605 24.3826381,9.71801681 19.8607188,14.8195294 C19.8607188,14.8195294 17.0810269,13.368437 14.0867103,6.83969748 C14.0867103,6.83969748 14.1711473,12.4894454 19.8607188,18.1741513 C19.8607188,18.1741513 27.4213598,10.4205378 27.4213598,3.36134454e-05" id="Fill-1" fill="#7E8082"></path>
                <path d="M12.3246689,39.7075294 C13.1993148,36.416437 15.363727,29.9895462 19.8853098,24.8876975 C19.8853098,24.8876975 22.6650018,26.3391261 25.6596547,32.8675294 C25.6596547,32.8675294 25.5748814,27.2177815 19.8853098,21.5334118 C19.8853098,21.5334118 12.3246689,29.2866891 12.3246689,39.7075294" id="Fill-3" fill="#7E8082"></path>
                <path d="M0,12.3112605 C3.29405099,13.1845378 9.72572592,15.3478992 14.8316395,19.8658824 C14.8316395,19.8658824 13.3790545,22.6430252 6.84544972,25.6352941 C6.84544972,25.6352941 12.4993626,25.5509244 18.1885977,19.8658824 C18.1885977,19.8658824 10.4291431,12.3112605 0,12.3112605" id="Fill-5" fill="#7E8082"></path>
                <path d="M27.4213598,3.36134454e-05 C26.5470503,3.29112605 24.3826381,9.71801681 19.8607188,14.8195294 C19.8607188,14.8195294 17.0810269,13.368437 14.0867103,6.83969748 C14.0867103,6.83969748 14.1711473,12.4894454 19.8607188,18.1741513 C19.8607188,18.1741513 27.4213598,10.4205378 27.4213598,3.36134454e-05" id="Fill-7" fill="#7E8082"></path>
                <path d="M12.3246689,39.7075294 C13.1993148,36.416437 15.363727,29.9895462 19.8853098,24.8876975 C19.8853098,24.8876975 22.6650018,26.3391261 25.6596547,32.8675294 C25.6596547,32.8675294 25.5748814,27.2177815 19.8853098,21.5334118 C19.8853098,21.5334118 12.3246689,29.2866891 12.3246689,39.7075294" id="Fill-9" fill="#7E8082"></path>
                <path d="M0,12.3112605 C3.29405099,13.1845378 9.72572592,15.3478992 14.8316395,19.8658824 C14.8316395,19.8658824 13.3790545,22.6430252 6.84544972,25.6352941 C6.84544972,25.6352941 12.4993626,25.5509244 18.1885977,19.8658824 C18.1885977,19.8658824 10.4291431,12.3112605 0,12.3112605" id="Fill-11" fill="#7E8082"></path>
                <path d="M39.7338846,27.4225546 C36.44017,26.5489412 30.0078222,24.385916 24.902245,19.8679328 C24.902245,19.8679328 26.35483,17.0904538 32.8884348,14.098521 C32.8884348,14.098521 27.2341856,14.1828908 21.5452868,19.8679328 C21.5452868,19.8679328 29.3047415,27.4225546 39.7338846,27.4225546" id="Fill-13" fill="#FEC122"></path>
                <path d="M47.0181038,14.2269916 C47.0154125,14.2269916 44.0789572,14.3896807 44.0789572,14.3896807 L44.0799664,14.8767395 L44.0799664,22.6696807 C44.0799664,24.735563 45.2365174,24.9083361 46.3207419,24.9083361 L46.8347645,24.9083361 C46.8347645,24.9083361 46.841829,17.0727059 46.8421654,16.8407731 C47.0036385,16.8343866 47.3979019,16.8182521 47.3979019,16.8182521 C51.0148991,16.668 53.6277355,16.5587563 54.9965563,17.8716975 C55.8412624,18.6814454 56.2695025,20.4041345 56.2695025,22.6696807 C56.2695025,24.735563 57.4260535,24.9083361 58.510278,24.9083361 L59.0236278,24.9083361 L59.0236278,21.4821176 C59.0236278,19.0478319 58.3420768,17.1311933 57.0516377,15.9385882 C54.562261,13.6374118 50.3794352,13.9641345 47.0181038,14.2269916" id="Fill-15" fill="#7E8082"></path>
                <path d="M36.9152036,15.2852773 L36.9152036,22.6698151 C36.9152036,24.7353613 38.0219671,24.9084706 39.1556427,24.9084706 L39.6703382,24.9084706 L39.6770662,15.2859496 C39.6770662,14.577042 39.1092192,14.0815798 38.2964713,14.0815798 C37.4702674,14.0815798 36.9152036,14.5652773 36.9152036,15.2852773" id="Fill-17" fill="#7E8082"></path>
                <path d="M87.6825443,22.156 C85.8185393,22.156 85.2257985,21.8074286 84.8638297,21.4306218 C84.6522326,21.2117983 84.1647858,20.3237311 84.1530117,16.836 C84.3710004,16.8356639 85.8521795,16.8316303 85.8521795,16.8316303 C88.0741165,16.8222185 88.0926186,15.7717983 88.0926186,14.6521345 L88.0926186,14.0800336 C88.0926186,14.0800336 84.348125,14.0766723 84.1136526,14.0763361 L84.1136526,12.6491092 C84.1136526,10.5832269 83.0072256,10.4107899 81.8735499,10.4107899 L81.4860145,10.4107899 L81.3612093,10.4107899 L81.3487624,14.3354958 C81.3184862,20.3270924 81.6589253,22.4104538 82.8672822,23.6238992 C83.6773389,24.4376807 84.5294458,24.9082689 86.4933623,24.9082689 L89.9229834,24.9082689 L89.9229834,24.3943193 C89.9229834,23.2948235 89.7500726,22.2161681 87.6859083,22.156" id="Fill-19" fill="#7E8082"></path>
                <path d="M104.615016,14.0634958 L104.490211,14.0634958 C104.490211,14.0634958 104.483483,21.8833277 104.48281,22.1152605 C104.321337,22.1216471 103.925728,22.1377815 103.925728,22.1377815 C100.309403,22.2880336 97.6965669,22.3972773 96.3277461,21.0856807 C95.4833764,20.2752605 95.0551363,18.5687059 95.0551363,16.3021513 C95.0551363,14.3347563 93.9783127,14.0634958 92.8140244,14.0634958 L92.2996654,14.0634958 L92.2996654,17.631563 C92.2996654,20.0060168 92.9630506,21.8234958 94.2713191,23.0335798 C96.763387,25.3354286 100.946886,25.0087059 104.30889,24.7458487 C104.306199,24.7458487 107.10372,24.5895462 107.10372,24.5895462 L107.215069,24.5831597 L107.243663,24.1034958 L107.244336,16.3021513 C107.244336,14.236605 106.137236,14.0634958 105.003897,14.0634958 L104.615016,14.0634958 Z" id="Fill-21" fill="#7E8082"></path>
                <path d="M65.7636827,21.0510924 C65.3677373,20.6557983 65.1504214,20.0094118 65.1504214,19.4981513 C65.1504214,18.9946218 65.3626912,18.3694118 65.7636827,17.9687395 C67.0712783,16.6621849 68.6880276,16.7287395 71.9090793,16.8608403 C71.9090793,16.8608403 74.0748371,16.9337815 74.2948442,16.9411765 L74.2948442,22.0793277 C74.0741643,22.0867227 71.8572734,22.1606723 71.8572734,22.1606723 C68.6688527,22.2904202 67.0685871,22.354958 65.7636827,21.0510924 M63.9868059,15.9630252 C62.9722167,16.9764706 62.413789,18.2403361 62.413789,19.5216807 C62.413789,20.7852101 62.9577514,21.9966387 63.9868059,23.0235294 C66.3261473,25.3603361 70.555733,25.027563 73.9550779,24.7596639 L74.2154533,24.7394958 C74.2134348,24.7394958 77.0345042,24.5828571 77.0345042,24.5828571 L77.1529178,24.5761345 L77.152245,24.0897479 L77.152245,14.8964706 C77.152245,14.8961345 77.1495538,14.4104202 77.1495538,14.4104202 L74.212762,14.247395 C74.2154533,14.247395 73.9493591,14.2265546 73.9493591,14.2265546 C70.552369,13.9596639 66.3244653,13.6272269 63.9868059,15.9630252" id="Fill-23" fill="#7E8082"></path>
                <path d="M110.324671,14.0809076 L110.324671,22.6567059 C110.324671,24.6543529 111.471802,24.9235966 112.59404,24.9235966 L113.113109,24.9235966 C113.113109,24.9235966 113.119837,17.2893109 113.119837,17.057042 C113.282656,17.0506555 113.887171,17.0261176 113.887171,17.0261176 C114.874511,16.9854454 115.318226,16.9467899 116.157886,16.9467899 C117.258258,16.9467899 118.43432,16.244605 118.43432,14.2731765 L118.43432,14.1609076 L118.322635,14.149479 C117.588941,14.0728403 116.834727,14.0513277 116.084214,14.062084 L110.324671,14.0809076 Z" id="Fill-25" fill="#7E8082"></path>
                <path d="M47.0181038,14.2269916 C47.0154125,14.2269916 44.0789572,14.3896807 44.0789572,14.3896807 L44.0799664,14.8767395 L44.0799664,22.6696807 C44.0799664,24.735563 45.2365174,24.9083361 46.3207419,24.9083361 L46.8347645,24.9083361 C46.8347645,24.9083361 46.841829,17.0727059 46.8421654,16.8407731 C47.0036385,16.8343866 47.3979019,16.8182521 47.3979019,16.8182521 C51.0148991,16.668 53.6277355,16.5587563 54.9965563,17.8716975 C55.8412624,18.6814454 56.2695025,20.4041345 56.2695025,22.6696807 C56.2695025,24.735563 57.4260535,24.9083361 58.510278,24.9083361 L59.0236278,24.9083361 L59.0236278,21.4821176 C59.0236278,19.0478319 58.3420768,17.1311933 57.0516377,15.9385882 C54.562261,13.6374118 50.3794352,13.9641345 47.0181038,14.2269916" id="Fill-27" fill="#7E8082"></path>
                <path d="M36.9152036,15.2852773 L36.9152036,22.6698151 C36.9152036,24.7353613 38.0219671,24.9084706 39.1556427,24.9084706 L39.6703382,24.9084706 L39.6770662,15.2859496 C39.6770662,14.577042 39.1092192,14.0815798 38.2964713,14.0815798 C37.4702674,14.0815798 36.9152036,14.5652773 36.9152036,15.2852773" id="Fill-29" fill="#7E8082"></path>
                <path d="M87.6825443,22.156 C85.8185393,22.156 85.2257985,21.8074286 84.8638297,21.4306218 C84.6522326,21.2117983 84.1647858,20.3237311 84.1530117,16.836 C84.3710004,16.8356639 85.8521795,16.8316303 85.8521795,16.8316303 C88.0741165,16.8222185 88.0926186,15.7717983 88.0926186,14.6521345 L88.0926186,14.0800336 C88.0926186,14.0800336 84.348125,14.0766723 84.1136526,14.0763361 L84.1136526,12.6491092 C84.1136526,10.5832269 83.0072256,10.4107899 81.8735499,10.4107899 L81.4860145,10.4107899 L81.3612093,10.4107899 L81.3487624,14.3354958 C81.3184862,20.3270924 81.6589253,22.4104538 82.8672822,23.6238992 C83.6773389,24.4376807 84.5294458,24.9082689 86.4933623,24.9082689 L89.9229834,24.9082689 L89.9229834,24.3943193 C89.9229834,23.2948235 89.7500726,22.2161681 87.6859083,22.156" id="Fill-31" fill="#7E8082"></path>
                <path d="M104.615016,14.0634958 L104.490211,14.0634958 C104.490211,14.0634958 104.483483,21.8833277 104.48281,22.1152605 C104.321337,22.1216471 103.925728,22.1377815 103.925728,22.1377815 C100.309403,22.2880336 97.6965669,22.3972773 96.3277461,21.0856807 C95.4833764,20.2752605 95.0551363,18.5687059 95.0551363,16.3021513 C95.0551363,14.3347563 93.9783127,14.0634958 92.8140244,14.0634958 L92.2996654,14.0634958 L92.2996654,17.631563 C92.2996654,20.0060168 92.9630506,21.8234958 94.2713191,23.0335798 C96.763387,25.3354286 100.946886,25.0087059 104.30889,24.7458487 C104.306199,24.7458487 107.10372,24.5895462 107.10372,24.5895462 L107.215069,24.5831597 L107.243663,24.1034958 L107.244336,16.3021513 C107.244336,14.236605 106.137236,14.0634958 105.003897,14.0634958 L104.615016,14.0634958 Z" id="Fill-33" fill="#7E8082"></path>
                <path d="M65.7636827,21.0510924 C65.3677373,20.6557983 65.1504214,20.0094118 65.1504214,19.4981513 C65.1504214,18.9946218 65.3626912,18.3694118 65.7636827,17.9687395 C67.0712783,16.6621849 68.6880276,16.7287395 71.9090793,16.8608403 C71.9090793,16.8608403 74.0748371,16.9337815 74.2948442,16.9411765 L74.2948442,22.0793277 C74.0741643,22.0867227 71.8572734,22.1606723 71.8572734,22.1606723 C68.6688527,22.2904202 67.0685871,22.354958 65.7636827,21.0510924 M63.9868059,15.9630252 C62.9722167,16.9764706 62.413789,18.2403361 62.413789,19.5216807 C62.413789,20.7852101 62.9577514,21.9966387 63.9868059,23.0235294 C66.3261473,25.3603361 70.555733,25.027563 73.9550779,24.7596639 L74.2154533,24.7394958 C74.2134348,24.7394958 77.0345042,24.5828571 77.0345042,24.5828571 L77.1529178,24.5761345 L77.152245,24.0897479 L77.152245,14.8964706 C77.152245,14.8961345 77.1495538,14.4104202 77.1495538,14.4104202 L74.212762,14.247395 C74.2154533,14.247395 73.9493591,14.2265546 73.9493591,14.2265546 C70.552369,13.9596639 66.3244653,13.6272269 63.9868059,15.9630252" id="Fill-35" fill="#7E8082"></path>
                <path d="M110.324671,14.0809076 L110.324671,22.6567059 C110.324671,24.6543529 111.471802,24.9235966 112.59404,24.9235966 L113.113109,24.9235966 C113.113109,24.9235966 113.119837,17.2893109 113.119837,17.057042 C113.282656,17.0506555 113.887171,17.0261176 113.887171,17.0261176 C114.874511,16.9854454 115.318226,16.9467899 116.157886,16.9467899 C117.258258,16.9467899 118.43432,16.244605 118.43432,14.2731765 L118.43432,14.1609076 L118.322635,14.149479 C117.588941,14.0728403 116.834727,14.0513277 116.084214,14.062084 L110.324671,14.0809076 Z" id="Fill-37" fill="#7E8082"></path>
            </g>
        </g>
    </g>
</svg>
