<?xml version="1.0" encoding="UTF-8"?>
<svg viewBox="0 0 1374 130" version="1.1" xmlns="http://www.w3.org/2000/svg" xmlns:xlink="http://www.w3.org/1999/xlink">
    <path d="M67.2325185,63.9475686 L108.515882,107.530133 C113.190401,112.226107 113.989298,120.07026 109.059395,124.586435 C104.059185,129.477202 95.1233606,128.389472 90.2317767,123.003526 L42.9301124,72.9629553 L24.836663,72.9629553 L24.836663,115.301248 C24.836663,122.189766 19.343627,127.676061 12.4464342,127.676061 C5.54982011,127.676061 0.0654552214,122.190347 0.0654552214,115.301248 L0.0654552214,12.8432889 C0.0654552214,5.93490784 5.54443128,0.443810153 12.4464342,0.443810153 C19.3490188,0.443810153 24.836663,5.93549538 24.836663,12.8432889 L24.836663,48.8916559 L48.7426349,48.8916559 L86.8698298,4.66134148 C91.9153013,-0.370746819 100.667929,-1.59912915 105.572317,3.20051386 C110.465764,7.68028048 109.709595,15.4640253 105.049428,20.2124011 L67.2325185,63.9475686 Z M197.8309,0.180620687 C233.656824,0.180620687 262.483013,29.0148755 262.483013,64.8389003 C262.483013,100.664971 233.657861,129.49718 197.8309,129.49718 C162.006518,129.49718 133.18187,100.664467 133.18187,64.8389003 C133.18187,29.0153797 162.007555,0.180620687 197.8309,0.180620687 Z M197.8309,104.716722 C219.853666,104.716722 237.717971,86.8576569 237.717971,64.8389003 C237.717971,42.8181388 219.851661,24.9518285 197.8309,24.9518285 C175.812143,24.9518285 157.953078,42.8161335 157.953078,64.8389003 C157.953078,86.8596618 175.810138,104.716722 197.8309,104.716722 Z M361.604228,1.4367079 C397.7526,1.4367079 426.262508,28.8208965 426.262508,64.3467581 C426.262508,99.8731485 397.752017,127.259892 361.604228,127.259892 L323.27268,127.259892 C316.362471,127.259892 310.882451,121.785254 310.882451,114.869663 L310.882451,13.8269367 C310.882451,6.9135604 316.363341,1.4367079 323.27268,1.4367079 L361.604228,1.4367079 Z M361.604228,25.5018407 L335.656742,25.5018407 L335.656742,103.197842 L361.604228,103.197842 C383.856384,103.197842 401.497466,86.1387598 401.497466,64.3467581 C401.497466,42.5541286 383.858952,25.5018407 361.604228,25.5018407 Z M570.679514,25.5006074 L499.435312,25.5006074 L499.435312,50.9193081 L553.271219,50.9193081 C560.200044,50.9193081 565.642949,56.0634027 565.642949,62.9518745 C565.642949,69.8475032 560.202081,74.9936908 553.271219,74.9936908 L499.435312,74.9936908 L499.435312,103.196609 L570.679514,103.196609 C577.619314,103.196609 583.069743,108.329576 583.069743,115.213759 C583.069743,122.1106 577.621343,127.261742 570.679514,127.261742 L487.045083,127.261742 C480.139894,127.261742 474.664104,121.785952 474.664104,114.871513 L474.664104,13.8287867 C474.664104,6.91434751 480.139894,1.43855788 487.045083,1.43855788 L570.679514,1.43855788 C577.617402,1.43855788 583.069743,6.59208558 583.069743,13.4772909 C583.069743,20.350566 577.613998,25.5006074 570.679514,25.5006074 Z M706.783032,58.0125702 L733.915733,86.0082538 L733.915733,13.539795 C733.915733,6.63605038 739.4209,1.14031628 746.321378,1.14031628 C753.222131,1.14031628 758.69619,6.63323296 758.69619,13.539795 L758.69619,116.000838 C758.69619,122.890328 753.217608,128.37565 746.321378,128.37565 C741.816414,128.37565 739.244299,127.007842 734.996338,122.774852 L695.079978,82.1986267 L655.18642,122.748975 C650.953845,126.996679 648.364555,128.37565 643.860335,128.37565 C636.952638,128.37565 631.479356,122.894285 631.479356,116.000838 L631.479356,13.539795 C631.479356,6.62926541 636.948116,1.14031628 643.860335,1.14031628 C650.761473,1.14031628 656.241314,6.63362823 656.241314,13.539795 L656.241314,86.1449113 L684.119734,57.9846879 C688.349478,53.7511362 690.936873,52.3754625 695.437728,52.3754625 C699.933772,52.3754625 702.502885,53.7430283 706.783032,58.0125702 Z M807.104878,64.8389003 C807.104878,29.0138673 835.932076,0.180620687 871.763158,0.180620687 C907.584011,0.180620687 936.421438,29.0190558 936.421438,64.8389003 C936.421438,100.660791 907.585048,129.49718 871.763158,129.49718 C835.931039,129.49718 807.104878,100.665979 807.104878,64.8389003 Z M871.763158,104.716722 C893.774028,104.716722 911.64098,86.8541378 911.64098,64.8389003 C911.64098,42.821659 893.772023,24.9518285 871.763158,24.9518285 C849.744401,24.9518285 831.885336,42.8161335 831.885336,64.8389003 C831.885336,86.8596618 849.742397,104.716722 871.763158,104.716722 Z M1093.23145,42.0767379 C1093.23145,59.6923525 1082.11913,74.154701 1065.83278,79.6351013 L1093.24748,108.553431 C1097.93191,113.23136 1098.73679,121.084827 1093.81148,125.603956 C1088.82888,130.498996 1079.8798,129.411232 1074.97789,124.032573 L1034.99248,82.0008089 L1009.57852,82.0008089 L1009.57852,116.667859 C1009.57852,123.567002 1004.13463,128.700425 997.188288,128.700425 C990.292249,128.700425 984.816559,123.215299 984.816559,116.325613 L984.816559,14.5644788 C984.816559,7.65166788 990.284554,2.17424992 997.188288,2.17424992 L1051.56223,2.17424992 C1074.79967,2.17424992 1093.23145,19.4227728 1093.23145,42.0767379 Z M1051.56223,26.2393827 L1009.57852,26.2393827 L1009.57852,57.9325929 L1051.56223,57.9325929 C1061.59633,57.9325929 1068.45099,51.3247723 1068.45099,42.0767379 C1068.45099,32.8431994 1061.59518,26.2393827 1051.56223,26.2393827 Z M1250.78687,20.2132881 L1212.97941,63.9476187 L1254.21377,107.496939 C1258.93245,112.253313 1259.71723,120.075239 1254.80567,124.58452 C1249.80776,129.47535 1240.87888,128.390343 1235.96035,123.01287 L1188.64997,72.9627465 L1170.57503,72.9627465 L1170.57503,115.301039 C1170.57503,122.194568 1165.0924,127.675852 1158.18172,127.675852 C1151.28789,127.675852 1145.80999,122.189855 1145.80999,115.301039 L1145.80999,12.8430801 C1145.80999,5.93497875 1151.28251,0.443601408 1158.18172,0.443601408 C1165.09779,0.443601408 1170.57503,5.93026265 1170.57503,12.8430801 L1170.57503,48.8914472 L1194.4959,48.8914472 L1232.59936,4.66688631 C1237.62709,-0.369777556 1246.41098,-1.60048388 1251.31682,3.2002778 C1256.21161,7.68123542 1255.4531,15.4665252 1250.78687,20.2132881 Z M1310.27459,52.6546355 C1310.27459,31.5213268 1316.3788,17.2569231 1327.72169,8.95818318 C1336.48391,2.54751927 1347.29397,0.181545676 1360.98712,0.181545676 C1367.90338,0.181545676 1373.37735,5.66223903 1373.37735,12.5810244 C1373.37735,19.4849535 1367.89973,24.9558368 1360.98712,24.9558368 C1351.89778,24.9558368 1346.29245,26.1630546 1342.36148,29.3628362 C1337.61319,33.2279191 1335.05505,40.4920689 1335.05505,52.6546355 L1335.05505,77.0465981 C1335.05505,98.1798069 1328.95023,112.440691 1317.60577,120.734551 C1308.8445,127.139862 1298.03998,129.501188 1284.34252,129.501188 C1277.42346,129.501188 1271.95229,124.030023 1271.95229,117.110959 C1271.95229,110.194109 1277.42433,104.72073 1284.34252,104.72073 C1293.43917,104.72073 1299.03962,103.51817 1302.96908,100.324376 C1307.71681,96.4654926 1310.27459,89.2074935 1310.27459,77.0465981 L1310.27459,52.6546355 Z" fill="#000000" fill-rule="nonzero"/>
</svg>