<?xml version="1.0" encoding="UTF-8"?>
<svg xmlns="http://www.w3.org/2000/svg" xmlns:xlink="http://www.w3.org/1999/xlink" x="0px" y="0px" viewBox="0 0 47.9 47.9" height="130px" width="200px">
    <g>
        <path fill="#D71539" d="M11.9,36h24V0h-24V36z"></path>
        <path fill="#FFF572" d="M23.7,11.8c-1.4,0-2.7,0.2-3.9,0.6l-1.5-2.6c0,0,0,0,0-0.1c0,0,0,0,0.1,0c0.1,0,0.6,0,0.6,0c0,0,0.1,0,0.1,0.1
                    c0,0.1,0,0.5,0,0.5c0,0.1,0.1,0.1,0.1,0c0-0.1,0.1-0.3,0.1-0.4c0-0.1,0.1-0.1,0.2,0l0.4,0.2c0,0,0,0,0,0.1c0,0.1-0.1,0.4-0.1,0.5
                    c0,0,0,0.1-0.1,0.1c-0.1,0-0.4-0.1-0.4-0.1c0,0-0.1,0-0.1,0.1c0.1,0.2,0.3,0.4,0.6,0.5c0.4,0.1,0.8,0,1-0.3
                    c0.1-0.2,0.2-0.4,0.2-0.6c0,0,0-0.1,0-0.1c0,0,0,0-0.1,0c-0.1,0.1-0.1,0.2-0.2,0.2c-0.1,0.1-0.2,0.1-0.3,0.1
                    c-0.2-0.1-0.3-0.3-0.3-0.5c0-0.1,0.1-0.2,0.2-0.3c0.1-0.1,0.2-0.1,0.3,0c0.1,0,0.1,0.1,0.2,0.1c0,0,0.1-0.1,0-0.1
                    c-0.1-0.1-0.3-0.3-0.4-0.7c0-0.3,0.1-0.6,0.2-0.7c0,0,0,0,0.1,0c0.3,0.1,0.5,0.4,0.5,0.7c0,0.3-0.1,0.6-0.1,0.6c0,0,0,0.1,0,0.1
                    c0,0,0.1,0,0.1,0c0.1-0.1,0.2-0.3,0.3-0.3c0.1,0,0.3,0,0.3,0.2c0.1,0.1,0.1,0.4,0.1,0.5c-0.1,0.1-0.2,0.2-0.3,0.2
                    c-0.1,0-0.2-0.1-0.3-0.1c0,0,0,0-0.1,0c0,0,0,0.1,0,0.2c0.1,0.3,0.5,0.6,0.8,0.6c0.4,0,0.8-0.2,1-0.6c0.1-0.1,0.1-0.2,0.1-0.4
                    c0,0,0,0,0-0.1c-0.1,0-0.1,0.1-0.2,0.1L23,10.2c0,0,0,0-0.1,0c-0.1-0.1-0.2-0.3-0.4-0.5c0,0,0,0,0-0.1c0.1-0.2,0.2-0.3,0.3-0.5
                    c0,0,0,0,0.1,0c0.2,0.1,0.3,0.2,0.5,0.3c0,0,0.1,0,0.1-0.1S23.3,9.1,23.3,9c0-0.1-0.1-0.1,0-0.1l0.5-0.3c0,0,0,0,0,0
                    c0,0,0.4,0.3,0.5,0.3c0.1,0,0,0.1,0,0.1c0,0.1-0.2,0.3-0.2,0.4c0,0.1,0.1,0.1,0.1,0.1c0.2-0.1,0.3-0.2,0.5-0.3c0,0,0,0,0.1,0
                    c0.1,0.2,0.2,0.3,0.3,0.5c0,0,0,0,0,0.1c-0.1,0.2-0.2,0.3-0.4,0.5c0,0,0,0-0.1,0L24.2,10c-0.1,0-0.1-0.1-0.2-0.1c0,0,0,0,0,0.1
                    c0,0.1,0,0.2,0.1,0.4c0.2,0.4,0.6,0.6,1,0.6c0.4,0,0.7-0.3,0.8-0.6c0,0,0-0.1,0-0.2c0,0,0,0-0.1,0c-0.1,0.1-0.2,0.2-0.3,0.1
                    c-0.1,0-0.2-0.1-0.3-0.2c-0.1-0.2,0-0.4,0.1-0.5c0.1-0.1,0.2-0.2,0.3-0.2c0.1,0,0.2,0.2,0.3,0.3c0,0,0,0,0.1,0c0,0,0.1-0.1,0-0.1
                    c0,0-0.1-0.3-0.1-0.6c0-0.3,0.3-0.6,0.5-0.7c0,0,0.1,0,0.1,0c0.2,0.1,0.3,0.4,0.2,0.7c0,0.3-0.3,0.6-0.4,0.7c0,0.1,0,0.1,0,0.1
                    c0.1,0,0.2-0.1,0.2-0.1c0.1-0.1,0.2,0,0.3,0c0.1,0.1,0.2,0.2,0.2,0.3c0,0.2-0.1,0.4-0.3,0.5c-0.1,0-0.2,0-0.3-0.1
                    c-0.1-0.1-0.1-0.1-0.2-0.2c0,0,0,0-0.1,0c0,0,0,0.1,0,0.1c0,0.2,0.1,0.5,0.2,0.6c0.2,0.3,0.7,0.5,1,0.3c0.2-0.1,0.5-0.2,0.6-0.5
                    c0-0.1-0.1-0.1-0.1-0.1c0,0-0.3,0.1-0.4,0.1c-0.1,0-0.1,0-0.1-0.1c0,0-0.1-0.4-0.1-0.5c0-0.1,0-0.1,0-0.1l0.4-0.2
                    C28,9.9,28,9.9,28,10c0,0,0.1,0.2,0.1,0.4c0,0.1,0.1,0.1,0.1,0c0,0,0-0.4,0-0.5c0-0.1,0-0.1,0.1-0.1c0,0,0.6,0,0.6,0
                    c0.1,0,0.1,0,0.1,0c0,0,0,0,0,0.1l-1.5,2.6C26.4,12,25.1,11.8,23.7,11.8"></path>
        <path fill="#FFF572" d="M23.7,7c0.4,0,0.7,0.3,0.7,0.7c0,0.4-0.3,0.7-0.7,0.7c0,0,0,0-0.1,0c-0.4,0-0.7-0.3-0.7-0.7
                    C23.1,7.3,23.4,7,23.7,7 M18.4,8.1c0.3,0,0.6,0.2,0.6,0.5c0,0.3-0.2,0.6-0.5,0.6c0,0,0,0,0,0c-0.3,0-0.5-0.3-0.5-0.6
                    C17.9,8.3,18.2,8.1,18.4,8.1 M19.1,6.7c0.3,0,0.5,0.2,0.5,0.5c0,0.3-0.2,0.5-0.5,0.5c-0.3,0-0.5-0.2-0.5-0.5
                    C18.6,7,18.8,6.7,19.1,6.7 M20.6,6.3c0.3,0,0.5,0.2,0.5,0.5c0,0.3-0.2,0.5-0.5,0.5s-0.5-0.2-0.5-0.5C20.1,6.5,20.3,6.3,20.6,6.3
                     M22.2,6.9c0.3,0,0.6,0.2,0.6,0.5S22.5,8,22.2,8c0,0,0,0,0,0c-0.3,0-0.5-0.3-0.5-0.6C21.6,7.2,21.9,7,22.2,6.9 M29.1,8.1
                    c-0.3,0-0.6,0.2-0.6,0.5s0.2,0.6,0.5,0.6c0,0,0,0,0,0c0.3,0,0.5-0.3,0.5-0.6C29.6,8.3,29.4,8.1,29.1,8.1 M28.5,6.7
                    c-0.3,0-0.5,0.2-0.5,0.5c0,0.3,0.2,0.5,0.5,0.5c0.3,0,0.5-0.2,0.5-0.5C29,7,28.8,6.7,28.5,6.7 M26.9,6.3c-0.3,0-0.5,0.2-0.5,0.5
                    c0,0.3,0.2,0.5,0.5,0.5s0.5-0.2,0.5-0.5C27.5,6.5,27.2,6.3,26.9,6.3 M25.4,6.9c-0.3,0-0.5,0.2-0.5,0.5S25.1,8,25.4,8
                    c0.3,0,0.5-0.2,0.5-0.5C25.9,7.2,25.7,6.9,25.4,6.9 M24.1,5l-0.2,0.6v0c0.2,0,0.4-0.1,0.5-0.2v0.8c-0.2-0.1-0.4-0.1-0.5-0.2v0
                    l0.2,0.7c-0.1-0.1-0.3-0.1-0.4-0.1c-0.1,0-0.3,0-0.4,0.1l0.2-0.7v0c-0.2,0-0.4,0.1-0.5,0.2V5.5c0.2,0.1,0.4,0.1,0.5,0.2v0L23.4,5
                    C23.4,5,24.1,5,24.1,5z M17.2,16c-0.1,0.4-0.1,0.9,0.2,1.2c0.2,0.3,0.6,0.4,1,0.3c0.2-0.1,0.5-0.3,0.5-0.5c0-0.2,0-0.4-0.2-0.6
                    c-0.2-0.1-0.4-0.1-0.6-0.1c-0.1,0.1-0.2,0.2-0.3,0.3C17.5,16.5,17.3,16.2,17.2,16 M19.4,14.2c0.6,0.2,1.1,0.8,1.3,1.4l1.4-0.7
                    C21.4,14.2,20.4,14,19.4,14.2 M22.8,14.5c0.3-0.1,0.5-0.3,0.8-0.4l0.4,0.6l0,0l-3.8,2c0-0.6-0.2-1.3-0.7-1.7
                    c-0.3-0.3-0.8-0.4-1.2-0.3c-0.2,0.1-0.5,0.3-0.5,0.6c0,0.2,0,0.4,0.1,0.5c0.2-0.1,0.5-0.2,0.8-0.1c0.4,0.1,0.8,0.4,0.9,0.7
                    c0.2,0.5,0,1-0.3,1.4c-0.4,0.4-1.1,0.5-1.6,0.4c-0.7-0.2-1.1-0.9-1.2-1.5c-0.1-1.2,0.8-2.3,2-2.8c0.9-0.4,2.3-0.5,3.2-0.1
                    C22,13.9,22.4,14.2,22.8,14.5 M24.4,26.9c-0.3,0-0.6,0.1-0.7,0.3c-0.1,0.2-0.2,0.5,0,0.6c0.1,0.2,0.3,0.3,0.6,0.3
                    c-0.1,0.4-0.4,0.7-0.7,1c0.4-0.2,0.8-0.4,1.1-0.7c0.3-0.3,0.5-0.8,0.2-1.2C24.7,27.1,24.6,27,24.4,26.9z M22.6,25.4
                    c-1.4-0.3-2.9-0.2-4.1,0.4c-0.8,0.4-1.4,1.1-1.4,1.9c0,0.7,0.6,1.2,1.2,1.5c-0.2-0.2-0.2-0.5-0.2-0.8c0-0.3,0.1-0.6,0.3-0.9
                    c0.6-0.7,1.6-1,2.6-0.8c0.4-0.6,1.1-1.1,1.8-1.3C22.9,25.4,22.6,25.4,22.6,25.4z M26.3,22.3L26.3,22.3c0.6,0.3,0.8,0.9,0.8,1.4v2.3
                    l0,0.8c0,0.7,0.3,1.4,0.8,2l1.7-0.9c-0.4-0.6-0.7-1.2-0.7-2l0-1.3c0-0.3,0-0.7-0.2-1C28.2,22.8,27.2,22.6,26.3,22.3z M24.5,20
                    l-1.1,0.6v3.3l-1.4,0.8c0.9,0.1,1.7,0.3,2.5,0.5C24.5,25.1,24.5,20,24.5,20z M25.2,19.6v2.5l1.1-0.6l0-1.1c0-0.3,0-0.6-0.2-0.8
                    C26,19.3,25.5,19.4,25.2,19.6z M28.1,18.2c-0.6,0.1-1.1,0.4-1.6,0.7c0.4,0.1,0.6,0.5,0.6,0.9l0,1.3l0,0l1.8-0.9l0-0.6
                    c0-0.3,0-0.7-0.1-1C28.6,18.3,28.4,18.2,28.1,18.2z M22.6,23.4v-6.6l-1.7,0.9l0,0v2.6c-0.4,0-0.9,0-1.2,0.1
                    c-0.3,0.1-0.6,0.4-0.7,0.8h1.9v3.2C20.8,24.3,22.6,23.4,22.6,23.4z M24.5,19.2v-3.3l-1.1,0.6v3.3L24.5,19.2L24.5,19.2z M28,14.2
                    c-0.6,0.1-1,0.4-1.5,0.6c0.7,0.2,0.7,0.9,0.7,1.5l1.7-0.9c0-0.3,0-0.6-0.1-0.9C28.5,14.2,28.3,14.1,28,14.2z M29.4,14.2
                    c0.2,0.4,0.1,1,0.1,1.5l-0.2,0.1l-3,1.6v-1.5c0-0.2,0-0.4-0.2-0.5c-0.2-0.2-0.6-0.1-0.9,0v3.4v0l1.9-0.9c0.6-0.3,1.3-0.4,1.9-0.1
                    c0.6,0.3,0.7,0.9,0.7,1.4l0,1.4l-2.5,1.3l0,0c0.9,0.3,1.8,0.7,2.3,1.5c0.4,0.8,0.1,2,0.3,2.9c0.1,0.5,0.3,0.9,0.6,1.3l0,0l0.8-0.4
                    l0.4,0.6l-2.6,1.4l-1.2,0.6C27,28.9,26.4,28,26.3,27l0-0.9l0-2.1c0-0.4,0-0.9-0.5-1.1c-0.2-0.1-0.4-0.1-0.6,0v2.7
                    c-1.3,0-2.5,0.3-3.3,1.2c-0.2,0.2-0.4,0.5-0.6,0.8c-0.5-0.2-1.3-0.3-1.8,0c-0.4,0.2-0.7,0.6-0.6,1.1c0.1,0.5,0.6,0.9,1.1,1
                    c1.1,0.2,2.5,0,3.1-0.9l0.1-0.2c-0.4-0.3-0.6-0.7-0.5-1.2c0.1-0.5,0.6-0.9,1.1-1c0.6-0.1,1.1,0.1,1.5,0.5c0.4,0.4,0.5,1,0.2,1.5
                    c-0.5,1.2-1.9,1.7-3.1,1.9c-1.5,0.3-3.2,0.2-4.5-0.4c-0.9-0.4-1.6-1.1-1.7-2c-0.1-1.1,0.6-2,1.6-2.6c0.6-0.3,1.4-0.6,2.1-0.6v-2.7
                    H18c0-0.8,0.3-1.7,1.2-2.1c0.3-0.1,0.6-0.2,0.9-0.2v-2.3l1.2-0.6l4-2.1l1.6-0.9c0.5-0.3,1.3-0.4,1.9-0.1
                    C29.1,13.8,29.3,14,29.4,14.2L29.4,14.2z"></path>
        <path fill="#001639" d="M16.2,47.9c-0.7-0.1-1-0.5-1.3-0.9c-0.1-0.2-1.9-2.8-2.4-3.7v3.3c0,0.5,0,0.8,0.4,1.1v0h-1.3v0
                    c0.4-0.3,0.4-0.6,0.4-1.1v-3.5c0-0.5-0.1-0.7-0.5-1v0h1.4v0l2.8,4.3v-3.3c0-0.5,0-0.8-0.4-1.1v0h1.3v0c-0.4,0.3-0.4,0.6-0.4,1.1
                    L16.2,47.9 M6.1,45c0,1.3,0.6,2.4,1.7,2.4c1,0,1.7-1.1,1.7-2.4c0-1.3-0.6-2.4-1.7-2.4C6.8,42.5,6.1,43.6,6.1,45 M10.5,44.9
                    c0,1.7-1.2,3-2.7,3c-1.5,0-2.7-1.2-2.7-2.9c0-1.6,1.2-2.9,2.8-2.9C9.4,42.1,10.5,43.4,10.5,44.9 M21.3,47.3v-1.3
                    c0-0.4,0-0.8-0.4-0.9v0h1.3v2.7c-0.4,0.1-1.3,0.2-1.6,0.2c-0.2,0-2.9,0-2.9-2.9c0-2.6,2.2-2.9,2.7-2.9c0.5,0,1.2,0.1,1.6,0.3v1.1h0
                    c-0.4-0.5-0.7-0.9-1.5-0.9c-0.6,0-1.8,0.5-1.8,2.5c0,0.5,0.1,1.7,1.1,2.2C20.1,47.3,20.8,47.5,21.3,47.3 M47,47.3v-1.3
                    c0-0.4,0-0.8-0.4-0.9v0h1.3v2.7c-0.4,0.1-1.3,0.2-1.6,0.2c-0.2,0-2.9,0-2.9-2.9c0-2.6,2.2-2.9,2.7-2.9c0.5,0,1.2,0.1,1.6,0.3v1.1h0
                    c-0.4-0.5-0.7-0.9-1.5-0.9c-0.6,0-1.8,0.5-1.8,2.5c0,0.5,0.1,1.7,1.1,2.2C45.7,47.3,46.4,47.5,47,47.3 M23.6,46.3
                    c0.3,0.6,0.9,1.1,1.5,1.1c0.6,0,1-0.5,1-1.1c0-1.2-2.4-1-2.4-2.7c0-1.2,1.1-1.6,1.8-1.6c0.3,0,0.8,0.1,1.1,0.2l0,1l0,0
                    c-0.4-0.6-0.7-0.8-1.2-0.8c-0.4,0-0.8,0.4-0.8,0.8c0,1.3,2.4,0.9,2.4,2.9c0,1.1-0.9,1.7-2,1.7c-0.2,0-0.8-0.1-1.3-0.3L23.6,46.3
                    L23.6,46.3L23.6,46.3z M29.4,42.7v4.6c0.7,0.1,2,0,1.9-1.2c0-0.7-0.5-1.2-1.6-1.2l0.2-0.4c0.4-0.1,1-0.2,1-1
                    C30.9,42.7,30,42.5,29.4,42.7 M32.3,46.1c0,0.7-0.4,1.1-0.9,1.4c-0.6,0.3-1.3,0.3-1.9,0.3h-1.3v0c0.4-0.2,0.4-0.8,0.4-1.2v-3.2
                    c0-0.4,0.1-1-0.4-1.2v0h1.9c1.1,0,1.8,0.4,1.8,1.2c0,0.6-0.4,0.9-1.2,1.2C31.3,44.7,32.3,45,32.3,46.1 M36.9,43.2L36.9,43.2
                    c-0.2-0.3-0.4-0.7-2.1-0.5v1.8h1.6v0.8h0c-0.1-0.2-0.5-0.4-0.7-0.4h-0.8v2.4c2,0.2,2.4-0.6,2.5-0.8h0L37,47.7h-3.5v0
                    c0.4-0.2,0.4-0.7,0.4-1.1v-3.4c0-0.4,0-0.9-0.4-1.1v0h3.4C36.9,42.2,36.9,43.2,36.9,43.2z M43.2,47.7h-0.8c-0.3,0-0.7,0-1.1-0.6
                    c-0.5-0.6-1.5-2.1-1.5-2.1l0.2-0.4c0.5-0.1,1-0.4,1-1.2c0-0.5-0.5-0.9-1-0.9c-0.2,0-0.3,0-0.5,0v3.9c0,0.4-0.1,1,0.4,1.2v0h-1.6v0
                    c0.4-0.2,0.3-0.7,0.4-1.2v-3.2c0-0.4,0.1-1-0.4-1.1v0h2c1.2,0,1.8,0.6,1.8,1.4c0,0.7-0.6,1.1-1.3,1.3
                    C41.4,45.8,42.5,47.5,43.2,47.7C43.2,47.7,43.2,47.7,43.2,47.7z M5,47.7L5,47.7l-0.9,0c-0.4,0-0.7-0.2-1-0.6l-1.6-2.4l1.4-1.5
                    c0.4-0.5,0.6-0.9,0-1.1v0h1.6v0l-2.1,2.3C3,45.4,4.2,47.4,5,47.7"></path>
        <path fill="#001639" d="M0.4,43.4c0-0.4,0.1-1-0.4-1.2v0h1.7v0c-0.4,0.2-0.4,0.8-0.4,1.2v3.2c0,0.4-0.1,1,0.4,1.2v0H0v0
                    c0.4-0.2,0.4-0.8,0.4-1.2L0.4,43.4L0.4,43.4z"></path>
    </g>
</svg>
