<?xml version="1.0" encoding="UTF-8"?>
<svg width="1253px" height="352px" viewBox="0 0 1253 352" version="1.1" xmlns="http://www.w3.org/2000/svg" xmlns:xlink="http://www.w3.org/1999/xlink">
    <!-- Generator: Sketch 51.2 (57519) - http://www.bohemiancoding.com/sketch -->
    <title>Politiet</title>
    <desc>Created with Sketch.</desc>
    <defs></defs>
    <g id="Page-1" stroke="none" stroke-width="1" fill="none" fill-rule="evenodd">
        <g id="Politiet" transform="translate(0.000000, -8.000000)">
            <g id="Group" transform="translate(398.984330, 105.106955)" fill="#231F20" fill-rule="nonzero">
                <path d="M62.0012,77.7340156 C69.8056011,77.7340156 78.5167697,77.0132515 78.5167697,56.4986016 C78.5167697,35.9839516 69.441344,35.441441 61.8151964,35.441441 L37.8517326,35.441441 L37.8517326,77.7340156 L62.0012,77.7340156 Z M2.45679755,6.94413539 L62.0012,6.94413539 C96.4893675,6.94413539 114.089958,13.6557662 114.089958,56.1343445 C114.089958,98.6129227 95.9391068,105.867064 61.8151964,105.867064 L37.8517326,105.867064 L37.8517326,140.54124 L2.45679755,140.54124 L2.45679755,6.94413539 Z" id="Shape"></path>
            </g>
            <g id="Group" transform="translate(517.579580, 103.828325)" fill="#231F20" fill-rule="nonzero">
                <path d="M100.75195,80.2838153 L100.75195,69.75136 C100.75195,44.516868 94.4045771,36.1699552 72.0686448,36.1699552 C49.9264663,36.1699552 43.7573469,44.160361 43.7573469,69.3871029 L43.7573469,79.9195582 C43.7573469,105.15405 50.2907233,114.585984 72.440652,114.585984 C94.761084,114.585984 100.75195,105.518307 100.75195,80.2838153 M6.54887675,75.0214627 C6.54887675,16.3915696 32.4963789,6.04511786 72.440652,6.04511786 C112.555428,6.04511786 137.96817,16.0195623 137.96817,74.6572056 C137.96817,133.287099 112.183421,143.990057 72.0686448,143.990057 C32.1398721,143.990057 6.54887675,133.643606 6.54887675,75.0214627" id="Shape"></path>
            </g>
            <g id="Group" transform="translate(672.023530, 106.142090)" fill="#231F20" fill-rule="nonzero">
                <polygon id="Shape" points="0 5.90561514 35.5809386 5.90561514 35.5809386 109.73439 95.6601014 109.73439 95.6601014 139.50272 0 139.50272"></polygon>
            </g>
            <g id="Group" transform="translate(775.594930, 106.705685)" fill="#231F20">
                <rect id="Rectangle-path" x="6.76588095" y="5.33985411" width="35.7591921" height="133.597105"></rect>
            </g>
            <g id="Group" transform="translate(828.963630, 106.454683)" fill="#231F20" fill-rule="nonzero">
                <polygon id="Shape" points="46.5009 36.2707072 4.02232785 36.2707072 4.02232785 5.58785895 124.730914 5.58785895 124.730914 36.2707072 82.0818387 36.2707072 82.0818387 139.184964 46.5009 139.184964"></polygon>
            </g>
            <g id="Group" transform="translate(961.598530, 106.705685)" fill="#231F20">
                <rect id="Rectangle-path" x="6.95188455" y="5.33985411" width="35.7591921" height="133.597105"></rect>
            </g>
            <g id="Group" transform="translate(1026.258530, 106.142090)" fill="#231F20" fill-rule="nonzero">
                <polygon id="Shape" points="0 5.90561514 95.6523513 5.90561514 95.6523513 36.5884634 35.5731885 36.5884634 35.5731885 57.087613 84.0348765 57.087613 84.0348765 87.7627111 35.5731885 87.7627111 35.5731885 109.73439 95.6523513 109.73439 95.6523513 139.50272 0 139.50272"></polygon>
            </g>
            <g id="Group" transform="translate(1128.217630, 106.454683)" fill="#231F20" fill-rule="nonzero">
                <polygon id="Shape" points="46.5009 36.2707072 4.02232785 36.2707072 4.02232785 5.58785895 124.730914 5.58785895 124.730914 36.2707072 82.0818386 36.2707072 82.0818386 139.184964 46.5009 139.184964"></polygon>
            </g>
            <g id="Group" transform="translate(33.591780, 64.053694)" fill="#231F20" fill-rule="nonzero">
                <polygon id="Shape" points="7.75015 49.7792206 1.0695207 31.3183606 12.3769896 0 23.6302073 31.3106105 17.0813306 49.7327196 14.3687781 48.7794511 20.5688981 31.3183606 12.3769896 8.50191576 4.13082995 31.3183606 10.4549523 48.7872012"></polygon>
            </g>
            <g id="Group" transform="translate(31.186930, 113.346306)" stroke="#6C6E70" stroke-width="1.56203805">
                <path d="M0,0 L0.06975135,0" id="Shape"></path>
            </g>
            <g id="Group" transform="translate(0.497030, 111.893719)" fill="#231F20" fill-rule="nonzero">
                <path d="M232.5045,232.194527 L59.0793935,232.194527 L59.0793935,221.917827 C59.0793935,216.019962 54.6540578,211.075365 48.8026946,210.432103 L40.6340364,210.447603 L40.6340364,186.848393 L29.6133232,186.848393 L29.6133232,66.984556 C13.0357523,65.806533 0.08525165,51.1199967 0.08525165,33.542654 C0.08525165,15.4460512 13.795267,0.410758009 30.6518432,0 L59.7924072,0 L59.7924072,2.89080636 L30.690594,2.89080636 C15.4150484,3.24731331 2.96830745,17.0038315 2.96830745,33.542654 C2.96830745,50.0892266 15.4382988,63.8457448 30.7603454,64.1790013 L32.1631225,64.2100019 L32.4886288,65.6127793 L32.4886288,183.973087 L43.5170922,183.973087 L43.5170922,207.564547 L48.9654477,207.549047 C56.4365923,208.386063 61.9546991,214.555183 61.9546991,221.917827 L61.9546991,229.319221 L229.629194,229.319221 L229.629194,221.917827 C229.629194,215.981211 233.907277,207.626548 243.424461,207.626548 L248.245055,207.587797 L248.245055,183.957587 L259.273518,183.957587 L259.273518,64.2952536 L260.629794,64.2177521 C276.40135,63.8457448 288.879091,50.0892266 288.879091,33.5581543 C288.879091,16.9650808 276.393599,3.21631271 261.032802,2.90630666 L231.520231,2.89080636 L231.520231,0 L261.063803,0.00775015111 C277.99788,0.372007253 291.754397,15.4150505 291.754397,33.5581543 C291.754397,51.2905 278.563641,66.0932886 262.141074,67.0310569 L262.141074,186.832893 L251.12036,186.832893 L251.12036,210.432103 L243.447712,210.517354 C235.472807,210.517354 232.5045,217.500241 232.5045,221.917827 L232.5045,232.194527 Z" id="Shape"></path>
            </g>
            <g id="Group" transform="translate(234.390380, 64.040448)" fill="#231F20" fill-rule="nonzero">
                <polygon id="Shape" points="7.75015 49.7714704 1.1470222 31.3028603 12.4157403 0 23.715459 31.3028603 17.1510819 49.7404698 14.4307793 48.7794511 20.6463996 31.3028603 12.4157403 8.49416561 4.2005813 31.3028603 10.4627025 48.8027015"></polygon>
            </g>
            <g id="Group" transform="translate(252.996380, 112.397930)" fill="#231F20" fill-rule="nonzero">
                <path d="M7.75015,66.1087889 L7.5021452,64.1092499 L8.370162,63.7759935 C13.8107673,63.2567333 17.825345,58.5291412 17.825345,52.778529 C17.825345,46.9891662 13.6557643,42.1530719 8.34691155,41.7810646 L8.47091395,39.8667773 C14.7872862,40.3085359 19.7551324,45.9893967 19.7551324,52.778529 C19.7551324,57.134114 17.7788441,60.9781889 14.6710339,63.3264847 C27.3270289,60.0326705 36.8519632,47.6014281 36.8519632,33.0543945 C36.8519632,18.6003627 27.5130325,6.2776224 15.0042904,2.85980576 C18.0423492,5.20035139 19.9721365,8.99792543 19.9721365,13.3147596 C19.9721365,20.0883917 15.0042904,25.7537521 8.68791815,26.2187612 L8.5561656,24.312224 C13.8727685,23.9247165 18.0423492,19.0886222 18.0423492,13.3147596 C18.0423492,7.48664597 13.9580201,2.75905379 8.5406653,2.30954503 L7.77340045,2.25529397 L7.5176455,0.372007253 L8.5871662,0 C25.2344884,0.3487568 38.7817506,15.1670457 38.7817506,33.0543945 C38.7817506,50.8874922 25.2577388,65.7057811 8.6491674,66.0777883 L7.75015,66.1087889 Z" id="Shape"></path>
            </g>
            <g id="Group" transform="translate(0.222730, 112.365258)" fill="#231F20" fill-rule="nonzero">
                <path d="M31.0006,66.1010388 C14.3532778,65.7290315 0.84476635,50.9107426 0.84476635,33.0776449 C0.84476635,15.1980463 14.3687781,0.364257102 31.0083501,0.0155003022 L32.085621,0 L31.930618,1.86003627 L31.0781015,2.32504533 C25.6529965,2.78230425 21.5686674,7.51764657 21.5686674,13.3302599 C21.5686674,19.1118726 25.7382481,23.9479669 31.054851,24.3432246 L30.9153483,26.2497618 C24.5989761,25.7925029 19.6466303,20.1193923 19.6466303,13.3302599 C19.6466303,9.02117589 21.5841677,5.231352 24.6144764,2.86755591 C12.1057343,6.30087285 2.75130325,18.6236131 2.75130325,33.0776449 C2.75130325,47.6091782 12.2529872,60.0171702 24.8934818,63.3342348 C21.8321726,60.9859391 19.8558843,57.1418641 19.8558843,52.8017795 C19.8558843,46.0203973 24.8082301,40.3472867 31.1246024,39.8900277 L31.2563549,41.7965649 C25.9475022,42.1840725 21.7779215,47.0124166 21.7779215,52.8017795 C21.7779215,58.5601418 25.8002493,63.2799838 31.1246024,63.7837436 L32.085621,63.8767454 L31.930618,65.8917847 L31.0006,66.1010388 Z" id="Shape"></path>
            </g>
            <g id="Group" transform="translate(93.581730, 294.670305)" fill="#231F20" fill-rule="nonzero">
                <path d="M2.37929605,8.33141244 L8.48641425,8.33141244 L8.48641425,2.22429337 L2.37929605,2.22429337 L2.37929605,8.33141244 Z M9.4396827,10.2534499 L1.4260276,10.2534499 C0.89126725,10.2534499 0.465009,9.81944145 0.465009,9.29243118 L0.465009,1.27102478 C0.465009,0.736264355 0.89126725,0.310006044 1.4260276,0.310006044 L9.4396827,0.310006044 C9.9666929,0.310006044 10.3929511,0.736264355 10.3929511,1.27102478 L10.3929511,9.29243118 C10.3929511,9.81944145 9.9666929,10.2534499 9.4396827,10.2534499 Z" id="Shape"></path>
            </g>
            <g id="Group" transform="translate(116.832180, 317.010794)" fill="#231F20" fill-rule="nonzero">
                <path d="M2.68930205,8.7809212 L8.78091995,8.7809212 L8.78091995,2.67380213 L2.68930205,2.67380213 L2.68930205,8.7809212 Z M9.7496887,10.7029587 L1.72828345,10.7029587 C1.1935231,10.7029587 0.76726485,10.2612001 0.76726485,9.74193994 L0.76726485,1.72053355 C0.76726485,1.18577312 1.1935231,0.767264959 1.72828345,0.767264959 L9.7496887,0.767264959 C10.2844491,0.767264959 10.7107073,1.18577312 10.7107073,1.72053355 L10.7107073,9.74193994 C10.7107073,10.2612001 10.2844491,10.7029587 9.7496887,10.7029587 Z" id="Shape"></path>
            </g>
            <g id="Group" transform="translate(70.331280, 264.429549)" fill="#231F20" fill-rule="nonzero">
                <path d="M2.0460396,15.7095563 L8.12990735,15.7095563 L8.12990735,9.60243722 L2.0460396,9.60243722 L2.0460396,15.7095563 Z M9.0986761,17.6160935 L1.085021,17.6160935 C0.5580108,17.6160935 0.1240024,17.1898352 0.1240024,16.670575 L0.1240024,8.64916863 C0.1240024,8.12215836 0.5580108,7.6881499 1.085021,7.6881499 L9.0986761,7.6881499 C9.6256863,7.6881499 10.0596947,8.12215836 10.0596947,8.64916863 L10.0596947,16.670575 C10.0596947,17.1898352 9.6256863,17.6160935 9.0986761,17.6160935 Z" id="Shape"></path>
            </g>
            <g id="Group" transform="translate(70.331280, 317.010794)" fill="#231F20" fill-rule="nonzero">
                <path d="M2.0615399,8.7809212 L8.1531578,8.7809212 L8.1531578,2.67380213 L2.0615399,2.67380213 L2.0615399,8.7809212 Z M9.1141764,10.7029587 L1.1005213,10.7029587 C0.56576095,10.7029587 0.1395027,10.2612001 0.1395027,9.74193994 L0.1395027,1.72053355 C0.1395027,1.18577312 0.56576095,0.767264959 1.1005213,0.767264959 L9.1141764,0.767264959 C9.64893675,0.767264959 10.075195,1.18577312 10.075195,1.72053355 L10.075195,9.74193994 C10.075195,10.2612001 9.64893675,10.7029587 9.1141764,10.7029587 Z" id="Shape"></path>
            </g>
            <g id="Group" transform="translate(163.333080, 317.010794)" fill="#231F20" fill-rule="nonzero">
                <path d="M3.23181255,8.7809212 L9.30793015,8.7809212 L9.30793015,2.67380213 L3.23181255,2.67380213 L3.23181255,8.7809212 Z M10.2766989,10.7029587 L2.27079395,10.7029587 C1.7360336,10.7029587 1.30977535,10.2612001 1.30977535,9.74193994 L1.30977535,1.72053355 C1.30977535,1.18577312 1.7360336,0.767264959 2.27079395,0.767264959 L10.2766989,0.767264959 C10.8037091,0.767264959 11.2377175,1.18577312 11.2377175,1.72053355 L11.2377175,9.74193994 C11.2377175,10.2612001 10.8037091,10.7029587 10.2766989,10.7029587 Z" id="Shape"></path>
            </g>
            <g id="Group" transform="translate(186.583530, 294.670305)" fill="#231F20" fill-rule="nonzero">
                <path d="M3.5495687,8.33141244 L9.6411866,8.33141244 L9.6411866,2.22429337 L3.5495687,2.22429337 L3.5495687,8.33141244 Z M10.6022052,10.2534499 L2.58079995,10.2534499 C2.0460396,10.2534499 1.61978135,9.81944145 1.61978135,9.29243118 L1.61978135,1.27102478 C1.61978135,0.736264355 2.0460396,0.310006044 2.58079995,0.310006044 L10.6022052,0.310006044 C11.1214653,0.310006044 11.5477235,0.736264355 11.5477235,1.27102478 L11.5477235,9.29243118 C11.5477235,9.81944145 11.1214653,10.2534499 10.6022052,10.2534499 Z" id="Shape"></path>
            </g>
            <g id="Group" transform="translate(209.833980, 264.429549)" fill="#231F20" fill-rule="nonzero">
                <path d="M3.88282515,15.7095563 L9.97444305,15.7095563 L9.97444305,9.60243722 L3.88282515,9.60243722 L3.88282515,15.7095563 Z M10.9432118,17.6160935 L2.92180655,17.6160935 C2.3870462,17.6160935 1.9530378,17.1898352 1.9530378,16.670575 L1.9530378,8.64916863 C1.9530378,8.12215836 2.3870462,7.6881499 2.92180655,7.6881499 L10.9432118,7.6881499 C11.470222,7.6881499 11.9042304,8.12215836 11.9042304,8.64916863 L11.9042304,16.670575 C11.9042304,17.1898352 11.470222,17.6160935 10.9432118,17.6160935 Z" id="Shape"></path>
            </g>
            <g id="Group" transform="translate(209.833980, 317.010794)" fill="#231F20" fill-rule="nonzero">
                <path d="M3.8595747,8.7809212 L9.95894275,8.7809212 L9.95894275,2.67380213 L3.8595747,2.67380213 L3.8595747,8.7809212 Z M10.9199614,10.7029587 L2.8985561,10.7029587 C2.36379575,10.7029587 1.9375375,10.2612001 1.9375375,9.74193994 L1.9375375,1.72053355 C1.9375375,1.18577312 2.36379575,0.767264959 2.8985561,0.767264959 L10.9199614,0.767264959 C11.4469716,0.767264959 11.88098,1.18577312 11.88098,1.72053355 L11.88098,9.74193994 C11.88098,10.2612001 11.4469716,10.7029587 10.9199614,10.7029587 Z" id="Shape"></path>
            </g>
            <g id="Group" transform="translate(225.334280, 104.889067)" fill="#231F20" fill-rule="nonzero">
                <path d="M8.00590495,190.955973 L34.8911753,190.955973 L34.8911753,9.39318314 L8.00590495,9.39318314 L8.00590495,190.955973 Z M35.8676942,192.86251 L7.04488635,192.86251 C6.51787615,192.86251 6.08386775,192.428502 6.08386775,191.909242 L6.08386775,8.43991455 C6.08386775,7.90515413 6.51787615,7.47889582 7.04488635,7.47889582 L35.8676942,7.47889582 C36.4024546,7.47889582 36.8287128,7.90515413 36.8287128,8.43991455 L36.8287128,191.909242 C36.8287128,192.428502 36.4024546,192.86251 35.8676942,192.86251 Z" id="Shape"></path>
            </g>
            <g id="Group" transform="translate(23.830380, 104.933219)" fill="#231F20" fill-rule="nonzero">
                <path d="M8.680168,190.932723 L35.596439,190.932723 L35.596439,9.36993269 L8.680168,9.36993269 L8.680168,190.932723 Z M36.5574575,192.84701 L7.7191494,192.84701 C7.18438905,192.84701 6.7581308,192.420752 6.7581308,191.901492 L6.7581308,8.40891395 C6.7581308,7.88190367 7.18438905,7.45564536 7.7191494,7.45564536 L36.5574575,7.45564536 C37.0922179,7.45564536 37.5184761,7.88190367 37.5184761,8.40891395 L37.5184761,191.901492 C37.5184761,192.420752 37.0922179,192.84701 36.5574575,192.84701 Z" id="Shape"></path>
            </g>
            <g id="Group" transform="translate(44.849230, 89.745620) scale(-1, 1) translate(-44.849230, -89.745620) translate(37.099080, 62.620091)" fill="#231F20">
                <rect id="Rectangle-path" x="5.6731098" y="5.9443659" width="1.9220372" height="44.726122"></rect>
            </g>
            <g id="Group" transform="translate(44.585230, 94.771507) scale(-1, 1) translate(-44.585230, -94.771507) translate(29.084930, 87.021356)" fill="#231F20">
                <rect id="Rectangle-path" x="4.6035891" y="7.40139431" width="19.2978735" height="1.90653717"></rect>
            </g>
            <g id="Group" transform="translate(39.330680, 289.230607)" fill="#231F20" fill-rule="nonzero">
                <path d="M4.2005813,30.721599 L9.18392775,30.721599 L9.18392775,8.55616682 L4.2005813,8.55616682 L4.2005813,30.721599 Z M10.1449463,32.620386 L3.24731285,32.620386 C2.72030265,32.620386 2.28629425,32.2018778 2.28629425,31.6826177 L2.28629425,7.60289823 C2.28629425,7.06813781 2.72030265,6.63412935 3.24731285,6.63412935 L10.1449463,6.63412935 C10.6642064,6.63412935 11.0904646,7.06813781 11.0904646,7.60289823 L11.0904646,31.6826177 C11.0904646,32.2018778 10.6642064,32.620386 10.1449463,32.620386 Z" id="Shape"></path>
            </g>
            <g id="Group" transform="translate(45.562930, 319.916631)" fill="#231F20" fill-rule="nonzero">
                <path d="M186.0036,23.6922119 L15.4460489,23.6922119 C14.9190388,23.6922119 14.4850304,23.2659536 14.4850304,22.7311932 L14.4850304,13.8960209 C14.4850304,7.67264959 9.8426905,2.51879911 3.69682155,1.91428732 L3.8905753,0 C11.0207133,0.713013902 16.4070676,6.69613056 16.4070676,13.8960209 L16.4070676,21.7779246 L185.042581,21.7779246 L185.042581,13.8960209 C185.042581,6.71938101 190.467686,0.767264959 197.644325,0.0310006044 L197.838079,1.92978763 C191.645709,2.57305017 186.964619,7.7191505 186.964619,13.8960209 L186.964619,22.7311932 C186.964619,23.2659536 186.53836,23.6922119 186.0036,23.6922119" id="Shape"></path>
            </g>
            <g id="Group" transform="translate(48.591080, 315.206538)" fill="#231F20" fill-rule="nonzero">
                <path d="M178.25345,23.3124545 L17.1355816,23.3124545 C16.6008213,23.3124545 16.1668129,22.8706959 16.1668129,22.3514358 L16.1668129,18.6236131 C16.1668129,9.93569372 9.3931818,2.59630062 0.7440144,1.91428732 L0.8990174,0 C10.540204,0.751764657 18.1043504,8.94367438 18.1043504,18.6236131 L18.1043504,21.3981672 L177.292431,21.3981672 L177.292431,18.6236131 C177.292431,8.94367438 184.856578,0.751764657 194.497764,0 L194.652767,1.91428732 C185.99585,2.59630062 179.214469,9.93569372 179.214469,18.6236131 L179.214469,22.3514358 C179.214469,22.8706959 178.78821,23.3124545 178.25345,23.3124545" id="Shape"></path>
            </g>
            <g id="Group" transform="translate(23.830380, 114.989629)" fill="#231F20" fill-rule="nonzero">
                <path d="M8.680168,12.8575007 L35.5886888,12.8575007 L35.5886888,6.85888373 L8.680168,6.85888373 L8.680168,12.8575007 Z M37.510726,14.7795382 L6.7581308,14.7795382 L6.7581308,4.96009671 L37.510726,4.96009671 L37.510726,14.7795382 Z" id="Shape"></path>
            </g>
            <g id="Group" transform="translate(42.404480, 125.737011)" fill="#231F20" fill-rule="nonzero">
                <polygon id="Shape" points="7.75015 29.1483183 6.1691194 28.0400467 16.996079 12.4312424 16.8798267 6.06836832 4.33233385 24.1804715 2.7590534 23.0721998 18.755363 0 18.755363 12.9892533"></polygon>
            </g>
            <g id="Group" transform="translate(30.734330, 153.759149)" fill="#231F20" fill-rule="nonzero">
                <polygon id="Shape" points="0 29.1638186 0 16.1823155 10.9974629 0 12.5784935 1.10052146 1.7515339 16.7325762 1.86778615 23.0954503 14.4385295 4.96009671 16.0195601 6.04511786"></polygon>
            </g>
            <g id="Group" transform="translate(42.424680, 176.774495)" fill="#231F20" fill-rule="nonzero">
                <polygon id="Shape" points="7.75015 29.132818 6.1691194 28.0400467 16.9805786 12.4389925 16.8643264 6.06836832 4.3090834 24.1882216 2.73580295 23.0877001 18.7321126 0 18.7321126 12.9892533"></polygon>
            </g>
            <g id="Group" transform="translate(30.734330, 204.824889)" fill="#231F20" fill-rule="nonzero">
                <polygon id="Shape" points="0 29.1405682 0 16.1668152 10.9974629 0 12.5784935 1.10052146 1.7515339 16.7093258 1.86778615 23.07995 14.415279 4.97559701 16.0040598 6.06836832"></polygon>
            </g>
            <g id="Group" transform="translate(42.471180, 227.368696)" fill="#231F20" fill-rule="nonzero">
                <polygon id="Shape" points="7.75015 28.8305621 6.17686955 27.7222905 16.9418279 12.4079919 16.8255756 5.9908668 4.2625825 23.8704654 2.68930205 22.7544436 18.6856116 0 18.6856116 12.9505025"></polygon>
            </g>
            <g id="Group" transform="translate(30.734330, 255.093252)" fill="#231F20" fill-rule="nonzero">
                <polygon id="Shape" points="0 28.8305621 0 15.8878098 10.950962 0 12.5242424 1.10052146 1.7515339 16.4303203 1.86778615 22.824195 14.4230292 4.96784686 16.0040598 6.07611847"></polygon>
            </g>
            <g id="Group" transform="translate(23.830380, 272.185440)" fill="#231F20" fill-rule="nonzero">
                <path d="M8.680168,15.6398049 L35.5886888,15.6398049 L35.5886888,9.64118798 L8.680168,9.64118798 L8.680168,15.6398049 Z M37.510726,17.5540923 L6.7581308,17.5540923 L6.7581308,7.74240095 L37.510726,7.74240095 L37.510726,17.5540923 Z" id="Shape"></path>
            </g>
            <g id="Group" transform="translate(24.908480, 223.612057)" fill="#231F20" fill-rule="nonzero">
                <path d="M7.75015,9.81944145 L7.75015,16.7093258 L34.3254143,54.2510577 L34.3254143,47.3611734 L7.75015,9.81944145 Z M36.2474515,60.3116759 L6.00636625,17.2518364 L5.8281128,3.75882329 L36.0769483,46.8031625 L36.2474515,60.3116759 Z" id="Shape"></path>
            </g>
            <g id="Group" transform="translate(24.908480, 173.595359)" fill="#231F20" fill-rule="nonzero">
                <path d="M7.75015,9.30793148 L7.75015,16.1668152 L34.3254143,54.2355574 L34.3254143,47.392174 L7.75015,9.30793148 Z M36.2474515,60.3736771 L5.9986161,16.7093258 L5.8281128,3.1853121 L36.0769483,46.8419133 L36.2474515,60.3736771 Z" id="Shape"></path>
            </g>
            <g id="Group" transform="translate(24.908480, 122.549045)" fill="#231F20" fill-rule="nonzero">
                <path d="M7.75015,9.31568163 L7.75015,16.1745654 L34.3254143,54.2433076 L34.3254143,47.392174 L7.75015,9.31568163 Z M36.2474515,60.3736771 L5.9986161,16.7248261 L5.8281128,3.19306226 L36.0769483,46.8419133 L36.2474515,60.3736771 Z" id="Shape"></path>
            </g>
            <g id="Group" transform="translate(240.834580, 289.212946)" fill="#231F20" fill-rule="nonzero">
                <path d="M3.4255663,30.7370993 L8.3856623,30.7370993 L8.3856623,8.54066652 L3.4255663,8.54066652 L3.4255663,30.7370993 Z M9.3466809,32.6358863 L2.4645477,32.6358863 C1.92978735,32.6358863 1.5035291,32.2173781 1.5035291,31.698118 L1.5035291,7.58739793 C1.5035291,7.06038766 1.92978735,6.63412935 2.4645477,6.63412935 L9.3466809,6.63412935 C9.8736911,6.63412935 10.3154497,7.06038766 10.3154497,7.58739793 L10.3154497,31.698118 C10.3154497,32.2173781 9.8736911,32.6358863 9.3466809,32.6358863 Z" id="Shape"></path>
            </g>
            <g id="Group" transform="translate(231.599530, 153.768862)" fill="#231F20" fill-rule="nonzero">
                <polygon id="Shape" points="0 29.1405682 0 16.1513149 10.9974628 0 12.5629932 1.077271 1.7515339 16.7015756 1.86778615 23.0721998 14.4230291 4.9290961 16.0040597 6.02961756"></polygon>
            </g>
            <g id="Group" transform="translate(243.290380, 125.697275)" fill="#231F20" fill-rule="nonzero">
                <polygon id="Shape" points="7.75015 29.1483183 6.1846197 28.0710473 16.9883288 12.4544928 16.8720765 6.07611847 4.3090834 24.2037219 2.73580295 23.0954503 18.7398627 0 18.7398627 13.0125037"></polygon>
            </g>
            <g id="Group" transform="translate(243.337380, 227.358983)" fill="#231F20" fill-rule="nonzero">
                <polygon id="Shape" points="7.75015 28.8538126 6.1846197 27.745541 16.9418279 12.4002418 16.8255757 5.9908668 4.2625825 23.8782156 2.68930205 22.7776941 18.6933618 0 18.6933618 12.9505025"></polygon>
            </g>
            <g id="Group" transform="translate(231.599530, 255.099433)" fill="#231F20" fill-rule="nonzero">
                <polygon id="Shape" points="0 28.877063 0 15.9343107 10.9664623 0 12.5474928 1.08502115 1.7515339 16.4768213 1.86778615 22.8706959 14.4230291 4.96009671 16.0040597 6.05286801"></polygon>
            </g>
            <g id="Group" transform="translate(231.599530, 204.818708)" fill="#231F20" fill-rule="nonzero">
                <polygon id="Shape" points="0 29.132818 0 16.1590651 10.9974628 0 12.5629932 1.09277131 1.7515339 16.7015756 1.86778615 23.0721998 14.4230291 4.95234656 16.0040597 6.04511786"></polygon>
            </g>
            <g id="Group" transform="translate(243.290380, 176.761249)" fill="#231F20" fill-rule="nonzero">
                <polygon id="Shape" points="7.75015 29.132818 6.1846197 28.055547 16.9883288 12.4312424 16.8720766 6.06836832 4.33233385 24.1804715 2.7590534 23.0877001 18.7398627 0 18.7398627 12.9892533"></polygon>
            </g>
            <g id="Group" transform="translate(245.035330, 89.666147) scale(-1, 1) translate(-245.035330, -89.666147) translate(237.285180, 62.540619)" fill="#231F20">
                <rect id="Rectangle-path" x="5.01434705" y="5.99861696" width="1.9220372" height="44.6951214"></rect>
            </g>
            <g id="Group" transform="translate(245.252330, 94.718525) scale(-1, 1) translate(-245.252330, -94.718525) translate(229.752030, 86.968374)" fill="#231F20">
                <rect id="Rectangle-path" x="4.185081" y="7.42464476" width="19.2978735" height="1.91428732"></rect>
            </g>
            <g id="Group" transform="translate(225.334280, 114.927817)" fill="#231F20" fill-rule="nonzero">
                <path d="M7.99040465,12.8807511 L34.8989254,12.8807511 L34.8989254,6.90538464 L7.99040465,6.90538464 L7.99040465,12.8807511 Z M36.8287128,14.8027886 L6.0606173,14.8027886 L6.0606173,4.99884746 L36.8287128,4.99884746 L36.8287128,14.8027886 Z" id="Shape"></path>
            </g>
            <g id="Group" transform="translate(225.774380, 122.532267)" fill="#231F20" fill-rule="nonzero">
                <path d="M7.75015,9.29243118 L7.75015,16.1823155 L34.3254144,54.2588079 L34.3254144,47.392174 L7.75015,9.29243118 Z M36.2552017,60.3736771 L6.00636625,16.7248261 L5.8281128,3.1698118 L36.0691981,46.8341631 L36.2552017,60.3736771 Z" id="Shape"></path>
            </g>
            <g id="Group" transform="translate(225.774380, 173.582113)" fill="#231F20" fill-rule="nonzero">
                <path d="M7.75015,9.30793148 L7.75015,16.1668152 L34.3254144,54.2510577 L34.3254144,47.392174 L7.75015,9.30793148 Z M36.2552017,60.3736771 L6.00636625,16.7170759 L5.8281128,3.1853121 L36.0691981,46.8419133 L36.2552017,60.3736771 Z" id="Shape"></path>
            </g>
            <g id="Group" transform="translate(225.774380, 223.650911)" fill="#231F20" fill-rule="nonzero">
                <path d="M7.75015,9.7806907 L7.75015,16.6550747 L34.3254144,54.266558 L34.3254144,47.3766737 L7.75015,9.7806907 Z M36.2552017,60.3271762 L6.00636625,17.2053355 L5.8281128,3.70457223 L36.0691981,46.8341631 L36.2552017,60.3271762 Z" id="Shape"></path>
            </g>
            <g id="Group" transform="translate(225.334280, 279.926761)" fill="#231F20" fill-rule="nonzero">
                <path d="M7.99040465,7.88965383 L34.8989254,7.88965383 L34.8989254,1.89103687 L7.99040465,1.89103687 L7.99040465,7.88965383 Z M36.8287128,9.8116913 L6.0606173,9.8116913 L6.0606173,0 L36.8287128,0 L36.8287128,9.8116913 Z" id="Shape"></path>
            </g>
            <g id="Group" transform="translate(80.800230, 304.273940)" fill="#231F20" fill-rule="nonzero">
                <path d="M15.5003,28.1175482 L21.5686674,28.1175482 L21.5686674,21.9406778 C21.5686674,21.4059174 22.0026758,20.9719089 22.529686,20.9719089 L28.7143057,20.9719089 L28.7143057,14.9035406 L22.529686,14.9035406 C22.0026758,14.9035406 21.5686674,14.461782 21.5686674,13.9425218 L21.5686674,7.75015111 L15.5003,7.75015111 L15.5003,13.9425218 C15.5003,14.461782 15.0662916,14.9035406 14.5470315,14.9035406 L8.3546617,14.9035406 L8.3546617,20.9719089 L14.5470315,20.9719089 C15.0662916,20.9719089 15.5003,21.4059174 15.5003,21.9406778 L15.5003,28.1175482 Z M22.529686,30.0318355 L14.5470315,30.0318355 C14.0122712,30.0318355 13.5860129,29.6133274 13.5860129,29.0785669 L13.5860129,22.9094467 L7.40139325,22.9094467 C6.87438305,22.9094467 6.44037465,22.4676881 6.44037465,21.9406778 L6.44037465,13.9425218 C6.44037465,13.4077614 6.87438305,12.9815031 7.40139325,12.9815031 L13.5860129,12.9815031 L13.5860129,6.80463267 C13.5860129,6.26987224 14.0122712,5.83586378 14.5470315,5.83586378 L22.529686,5.83586378 C23.0644464,5.83586378 23.4907046,6.26987224 23.4907046,6.80463267 L23.4907046,12.9815031 L29.6753244,12.9815031 C30.2100847,12.9815031 30.6363429,13.4077614 30.6363429,13.9425218 L30.6363429,21.9406778 C30.6363429,22.4676881 30.2100847,22.9094467 29.6753244,22.9094467 L23.4907046,22.9094467 L23.4907046,29.0785669 C23.4907046,29.6133274 23.0644464,30.0318355 22.529686,30.0318355 Z" id="Shape"></path>
            </g>
            <g id="Group" transform="translate(127.815230, 304.273940)" fill="#231F20" fill-rule="nonzero">
                <path d="M15.5003,28.1175482 L21.5686675,28.1175482 L21.5686675,21.9406778 C21.5686675,21.4059174 22.0026759,20.9719089 22.5296861,20.9719089 L28.7143058,20.9719089 L28.7143058,14.9035406 L22.5296861,14.9035406 C22.0026759,14.9035406 21.5686675,14.461782 21.5686675,13.9425218 L21.5686675,7.75015111 L15.5003,7.75015111 L15.5003,13.9425218 C15.5003,14.461782 15.0740418,14.9035406 14.5392814,14.9035406 L8.36241185,14.9035406 L8.36241185,20.9719089 L14.5392814,20.9719089 C15.0740418,20.9719089 15.5003,21.4059174 15.5003,21.9406778 L15.5003,28.1175482 Z M22.5296861,30.0318355 L14.5392814,30.0318355 C14.0045211,30.0318355 13.5782628,29.6133274 13.5782628,29.0785669 L13.5782628,22.9094467 L7.40139325,22.9094467 C6.87438305,22.9094467 6.44037465,22.4676881 6.44037465,21.9406778 L6.44037465,13.9425218 C6.44037465,13.4077614 6.87438305,12.9815031 7.40139325,12.9815031 L13.5782628,12.9815031 L13.5782628,6.80463267 C13.5782628,6.26987224 14.0045211,5.83586378 14.5392814,5.83586378 L22.5296861,5.83586378 C23.0644464,5.83586378 23.4907047,6.26987224 23.4907047,6.80463267 L23.4907047,12.9815031 L29.6830745,12.9815031 C30.2100847,12.9815031 30.6440931,13.4077614 30.6440931,13.9425218 L30.6440931,21.9406778 C30.6440931,22.4676881 30.2100847,22.9094467 29.6830745,22.9094467 L23.4907047,22.9094467 L23.4907047,29.0785669 C23.4907047,29.6133274 23.0644464,30.0318355 22.5296861,30.0318355 Z" id="Shape"></path>
            </g>
            <g id="Group" transform="translate(57.301830, 235.894591)" fill="#231F20" fill-rule="nonzero">
                <path d="M15.5003,28.1252984 L21.5609173,28.1252984 L21.5609173,21.9561781 C21.5609173,21.4291678 21.9871755,20.9951593 22.5219359,20.9951593 L28.7065556,20.9951593 L28.7065556,14.9112907 L22.5219359,14.9112907 C21.9871755,14.9112907 21.5609173,14.4850324 21.5609173,13.950272 L21.5609173,7.77340156 L15.5003,7.77340156 L15.5003,13.950272 C15.5003,14.4850324 15.0740417,14.9112907 14.5392814,14.9112907 L8.3546617,14.9112907 L8.3546617,20.9951593 L14.5392814,20.9951593 C15.0740417,20.9951593 15.5003,21.4291678 15.5003,21.9561781 L15.5003,28.1252984 Z M22.5219359,30.0395857 L14.5392814,30.0395857 C14.004521,30.0395857 13.5782628,29.6210775 13.5782628,29.0863171 L13.5782628,22.9016965 L7.3936431,22.9016965 C6.85888275,22.9016965 6.42487435,22.4754382 6.42487435,21.9561781 L6.42487435,13.950272 C6.42487435,13.4155116 6.85888275,12.9892533 7.3936431,12.9892533 L13.5782628,12.9892533 L13.5782628,6.81238282 C13.5782628,6.2776224 14.004521,5.83586378 14.5392814,5.83586378 L22.5219359,5.83586378 C23.0489461,5.83586378 23.4907046,6.2776224 23.4907046,6.81238282 L23.4907046,12.9892533 L29.6675742,12.9892533 C30.2023345,12.9892533 30.6285928,13.4155116 30.6285928,13.950272 L30.6285928,21.9561781 C30.6285928,22.4754382 30.2023345,22.9016965 29.6675742,22.9016965 L23.4907046,22.9016965 L23.4907046,29.0863171 C23.4907046,29.6210775 23.0489461,30.0395857 22.5219359,30.0395857 Z" id="Shape"></path>
            </g>
            <g id="Group" transform="translate(57.301830, 281.542930)" fill="#231F20" fill-rule="nonzero">
                <path d="M15.5003,28.1330485 L21.5609173,28.1330485 L21.5609173,21.9406778 C21.5609173,21.4059174 21.9871755,20.9641587 22.5219359,20.9641587 L28.7065556,20.9641587 L28.7065556,14.8957904 L22.5219359,14.8957904 C21.9871755,14.8957904 21.5609173,14.461782 21.5609173,13.9425218 L21.5609173,7.75015111 L15.5003,7.75015111 L15.5003,13.9425218 C15.5003,14.461782 15.0740417,14.8957904 14.5392814,14.8957904 L8.3546617,14.8957904 L8.3546617,20.9641587 L14.5392814,20.9641587 C15.0740417,20.9641587 15.5003,21.4059174 15.5003,21.9406778 L15.5003,28.1330485 Z M22.5219359,30.0395857 L14.5392814,30.0395857 C14.004521,30.0395857 13.5782628,29.6133274 13.5782628,29.0940673 L13.5782628,22.8939464 L7.3936431,22.8939464 C6.85888275,22.8939464 6.42487435,22.4754382 6.42487435,21.9406778 L6.42487435,13.9425218 C6.42487435,13.4155116 6.85888275,12.9660028 7.3936431,12.9660028 L13.5782628,12.9660028 L13.5782628,6.80463267 C13.5782628,6.26987224 14.004521,5.84361393 14.5392814,5.84361393 L22.5219359,5.84361393 C23.0489461,5.84361393 23.4907046,6.26987224 23.4907046,6.80463267 L23.4907046,12.9660028 L29.6675742,12.9660028 C30.2023345,12.9660028 30.6285928,13.4155116 30.6285928,13.9425218 L30.6285928,21.9406778 C30.6285928,22.4754382 30.2023345,22.8939464 29.6675742,22.8939464 L23.4907046,22.8939464 L23.4907046,29.0940673 C23.4907046,29.6133274 23.0489461,30.0395857 22.5219359,30.0395857 Z" id="Shape"></path>
            </g>
            <g id="Group" transform="translate(174.833230, 304.273940)" fill="#231F20" fill-rule="nonzero">
                <path d="M15.5003,28.1175482 L21.5686675,28.1175482 L21.5686675,21.9406778 C21.5686675,21.4059174 22.0026759,20.9719089 22.5296861,20.9719089 L28.7065556,20.9719089 L28.7065556,14.9035406 L22.5296861,14.9035406 C22.0026759,14.9035406 21.5686675,14.461782 21.5686675,13.9425218 L21.5686675,7.75015111 L15.5003,7.75015111 L15.5003,13.9425218 C15.5003,14.461782 15.0740418,14.9035406 14.5392814,14.9035406 L8.3546617,14.9035406 L8.3546617,20.9719089 L14.5392814,20.9719089 C15.0740418,20.9719089 15.5003,21.4059174 15.5003,21.9406778 L15.5003,28.1175482 Z M22.5296861,30.0318355 L14.5392814,30.0318355 C14.0045211,30.0318355 13.5782628,29.6133274 13.5782628,29.0785669 L13.5782628,22.9094467 L7.38589295,22.9094467 C6.85888275,22.9094467 6.42487435,22.4676881 6.42487435,21.9406778 L6.42487435,13.9425218 C6.42487435,13.4077614 6.85888275,12.9815031 7.38589295,12.9815031 L13.5782628,12.9815031 L13.5782628,6.80463267 C13.5782628,6.26987224 14.0045211,5.83586378 14.5392814,5.83586378 L22.5296861,5.83586378 C23.0644464,5.83586378 23.4907047,6.26987224 23.4907047,6.80463267 L23.4907047,12.9815031 L29.6675742,12.9815031 C30.2023346,12.9815031 30.6285928,13.4077614 30.6285928,13.9425218 L30.6285928,21.9406778 C30.6285928,22.4676881 30.2023346,22.9094467 29.6675742,22.9094467 L23.4907047,22.9094467 L23.4907047,29.0785669 C23.4907047,29.6133274 23.0644464,30.0318355 22.5296861,30.0318355 Z" id="Shape"></path>
            </g>
            <g id="Group" transform="translate(198.330230, 235.894591)" fill="#231F20" fill-rule="nonzero">
                <path d="M15.5003,28.1252984 L21.5919179,28.1252984 L21.5919179,21.9561781 C21.5919179,21.4291678 22.0259263,20.9951593 22.5529365,20.9951593 L28.7298061,20.9951593 L28.7298061,14.9112907 L22.5529365,14.9112907 C22.0259263,14.9112907 21.5919179,14.4850324 21.5919179,13.950272 L21.5919179,7.77340156 L15.5003,7.77340156 L15.5003,13.950272 C15.5003,14.4850324 15.0740418,14.9112907 14.5392814,14.9112907 L8.37791215,14.9112907 L8.37791215,20.9951593 L14.5392814,20.9951593 C15.0740418,20.9951593 15.5003,21.4291678 15.5003,21.9561781 L15.5003,28.1252984 Z M22.5529365,30.0395857 L14.5392814,30.0395857 C14.0045211,30.0395857 13.5782628,29.6210775 13.5782628,29.0863171 L13.5782628,22.9016965 L7.41689355,22.9016965 C6.8821332,22.9016965 6.45587495,22.4754382 6.45587495,21.9561781 L6.45587495,13.950272 C6.45587495,13.4155116 6.8821332,12.9892533 7.41689355,12.9892533 L13.5782628,12.9892533 L13.5782628,6.81238282 C13.5782628,6.2776224 14.0045211,5.83586378 14.5392814,5.83586378 L22.5529365,5.83586378 C23.0876969,5.83586378 23.5139551,6.2776224 23.5139551,6.81238282 L23.5139551,12.9892533 L29.6908247,12.9892533 C30.2178349,12.9892533 30.6518433,13.4155116 30.6518433,13.950272 L30.6518433,21.9561781 C30.6518433,22.4754382 30.2178349,22.9016965 29.6908247,22.9016965 L23.5139551,22.9016965 L23.5139551,29.0863171 C23.5139551,29.6210775 23.0876969,30.0395857 22.5529365,30.0395857 Z" id="Shape"></path>
            </g>
            <g id="Group" transform="translate(198.330230, 281.542930)" fill="#231F20" fill-rule="nonzero">
                <path d="M15.5003,28.1330485 L21.5919179,28.1330485 L21.5919179,21.9406778 C21.5919179,21.4059174 22.0259263,20.9641587 22.5529365,20.9641587 L28.7298061,20.9641587 L28.7298061,14.8957904 L22.5529365,14.8957904 C22.0259263,14.8957904 21.5919179,14.461782 21.5919179,13.9425218 L21.5919179,7.75015111 L15.5003,7.75015111 L15.5003,13.9425218 C15.5003,14.461782 15.0740418,14.8957904 14.5392814,14.8957904 L8.37791215,14.8957904 L8.37791215,20.9641587 L14.5392814,20.9641587 C15.0740418,20.9641587 15.5003,21.4059174 15.5003,21.9406778 L15.5003,28.1330485 Z M22.5529365,30.0395857 L14.5392814,30.0395857 C14.0045211,30.0395857 13.5782628,29.6133274 13.5782628,29.0940673 L13.5782628,22.8939464 L7.41689355,22.8939464 C6.8821332,22.8939464 6.45587495,22.4754382 6.45587495,21.9406778 L6.45587495,13.9425218 C6.45587495,13.4155116 6.8821332,12.9660028 7.41689355,12.9660028 L13.5782628,12.9660028 L13.5782628,6.80463267 C13.5782628,6.26987224 14.0045211,5.84361393 14.5392814,5.84361393 L22.5529365,5.84361393 C23.0876969,5.84361393 23.5139551,6.26987224 23.5139551,6.80463267 L23.5139551,12.9660028 L29.6908247,12.9660028 C30.2178349,12.9660028 30.6518433,13.4155116 30.6518433,13.9425218 L30.6518433,21.9406778 C30.6518433,22.4754382 30.2178349,22.8939464 29.6908247,22.8939464 L23.5139551,22.8939464 L23.5139551,29.0940673 C23.5139551,29.6133274 23.0876969,30.0395857 22.5529365,30.0395857 Z" id="Shape"></path>
            </g>
            <g id="Group" transform="translate(142.885530, 57.304239)" fill="#231F20" fill-rule="nonzero">
                <path d="M0,2.56530002 C0,2.56530002 1.6275315,2.99155833 3.30931405,2.99155833 C4.9755963,2.99155833 7.21538965,2.54204956 7.21538965,2.54204956 L6.3086221,15.5235527 C6.3086221,15.5235527 4.9755963,14.8880403 3.41781615,14.8880403 C1.85228585,14.8880403 0.620012,15.4770518 0.620012,15.4770518 L0,2.56530002 Z" id="Shape"></path>
            </g>
            <g id="Group" transform="translate(72.773480, 56.844621)" fill="#231F20" fill-rule="nonzero">
                <path d="M7.75015,18.4996107 C7.75015,18.4996107 6.56437705,18.0268515 5.24685155,18.0268515 C4.05332845,18.0268515 2.89080595,18.3213572 2.89080595,18.3213572 C2.89080595,18.3213572 -0.0155003,9.04442634 1.8290354,4.66559097 C3.18531165,1.4105275 10.0519445,0.55801088 16.0273102,0.310006044 C23.8239611,0 33.6124005,0.457258915 33.6124005,0.457258915 C33.6124005,0.457258915 32.9458876,1.25552448 32.6978828,2.20879307 C32.4576282,3.1698118 32.3258757,3.96032722 32.3258757,3.96032722 C32.3258757,3.96032722 23.7077089,3.42556679 19.8558843,3.66582147 C16.0273102,3.90607616 9.91244185,4.52608825 8.2306593,6.16912028 C6.81238185,7.54864718 6.5411266,9.4474342 6.8356323,11.9274826 C7.16888875,14.717537 7.75015,18.4996107 7.75015,18.4996107" id="Shape"></path>
            </g>
            <g id="Group" transform="translate(106.499380, 48.490476)" fill="#231F20" fill-rule="nonzero">
                <path d="M7.75015,25.3274938 C7.75015,25.3274938 6.92088395,25.1027394 6.0296167,25.1027394 C3.6735711,25.1027394 1.9065369,26.3815144 1.9065369,26.3815144 C1.9065369,26.3815144 -1.21677355,14.8492895 0.92226785,10.2224493 C2.16229185,7.48664597 7.7191494,6.69613056 15.5080501,6.975136 C23.2814506,7.25414144 34.7129218,11.0052146 34.7129218,11.0052146 L34.7129218,13.0590046 C34.7129218,13.0590046 25.1802373,10.4007028 18.6081101,10.2224493 C11.4934724,9.99769493 9.4861836,10.5324554 8.28491035,11.8344807 C6.79688155,13.4775128 6.82788215,16.5465726 6.99838545,18.5848624 C7.2386401,21.336166 7.75015,25.3274938 7.75015,25.3274938" id="Shape"></path>
            </g>
            <g id="Group" transform="translate(181.517930, 56.848153)" fill="#231F20" fill-rule="nonzero">
                <path d="M31.0006,18.4763602 C31.0006,18.4763602 32.1863729,17.9958509 33.5038984,17.9958509 C34.7129218,17.9958509 35.8134431,18.3678581 35.8134431,18.3678581 C35.8134431,18.3678581 38.7817506,9.04442634 36.9372149,4.66559097 C35.5654383,1.4105275 28.7065556,0.55801088 22.7234398,0.302255893 C14.9422892,2.77555756e-17 5.01434705,0.457258915 5.01434705,0.457258915 C5.01434705,0.457258915 5.68085995,1.25552448 5.9211146,2.20879307 C6.1536191,3.1698118 6.28537165,3.95257706 6.28537165,3.95257706 C6.28537165,3.95257706 15.0585414,3.42556679 18.8948657,3.65807132 C22.7311899,3.89832601 28.8538084,4.51833809 30.535591,6.16137013 C31.9461183,7.54089703 32.2251237,9.4474342 31.9151177,11.9274826 C31.5741111,14.717537 31.0006,18.4763602 31.0006,18.4763602" id="Shape"></path>
            </g>
            <g id="Group" transform="translate(147.928930, 48.490476)" fill="#231F20" fill-rule="nonzero">
                <path d="M31.0006,25.1879911 C31.0006,25.1879911 31.8376162,24.9709869 32.7366336,24.9709869 C35.0926792,24.9709869 36.8442131,26.2420116 36.8442131,26.2420116 C36.8442131,26.2420116 39.8280208,14.8492895 37.7044797,10.2224493 C36.4567056,7.48664597 30.9153483,6.69613056 23.1186974,6.96738584 C15.3375468,7.24639128 3.92932605,10.9974644 3.92932605,10.9974644 L3.88282515,13.0435043 C3.88282515,13.0435043 13.4465102,10.4084529 20.0031371,10.2224493 C27.1177748,10.0054451 29.1328138,10.5324554 30.3340871,11.8344807 C31.8221159,13.4775128 31.8066156,16.7248261 31.7136138,18.7631158 C31.5973615,21.7314237 31.0006,25.1879911 31.0006,25.1879911" id="Shape"></path>
            </g>
            <g id="Group" transform="translate(66.989330, 74.138802)" fill="#231F20" fill-rule="nonzero">
                <path d="M62.0012,38.8205069 L144.749552,38.8205069 L152.468701,3.76657344 C150.817919,2.74355349 148.058866,2.54979971 148.058866,2.54979971 C148.058866,2.54979971 144.749552,2.18554261 143.548278,4.70434172 C142.060249,7.83540277 145.927574,11.1447173 145.927574,11.1447173 L143.966786,13.7565182 C143.966786,13.7565182 141.323985,9.89694296 138.417679,9.21492967 C137.146654,8.92042392 134.713107,9.96669432 134.713107,14.5857844 C134.713107,18.4531098 135.627625,20.0108902 137.97592,19.9178883 C140.510219,19.8248865 144.540297,15.3840499 144.540297,15.3840499 L145.67957,17.8408478 L141.370486,26.3660141 C141.370486,26.3660141 136.968401,28.2570509 130.256771,28.1485488 C120.065324,27.9857956 119.127556,26.2265113 119.127556,26.2265113 L114.872723,17.8408478 L116.019745,15.3607995 C116.019745,15.3607995 119.925821,19.6311328 122.483371,19.9178883 C124.816166,20.1891436 125.862436,18.4221092 125.862436,14.6090348 C125.862436,10.2922007 123.715644,8.90492362 122.002861,9.26143057 C119.34456,9.8116913 116.562256,13.7177675 116.562256,13.7177675 L114.609218,11.1214668 C114.609218,11.1214668 118.523044,7.92840458 118.182037,5.14610033 C117.732529,1.35627644 113.028188,1.24002418 113.028188,1.24002418 C113.028188,1.24002418 108.928358,1.29427523 107.920839,4.42533628 C106.890069,7.63389884 111.338655,11.1214668 111.338655,11.1214668 L109.362367,13.7177675 C109.362367,13.7177675 106.564562,9.69543903 103.697007,9.19942936 C102.782489,9.03667619 100.062187,9.59468707 100.093187,14.8492895 C100.100937,18.4531098 101.116207,20.0186403 103.379251,19.902388 C105.91355,19.7628853 109.943628,15.3607995 109.943628,15.3607995 L111.07515,17.8098472 L106.812567,26.2652621 C106.812567,26.2652621 105.828298,28.1640491 96.5126179,28.1640491 L96.3033639,28.1872996 C86.9411827,28.3035518 85.9104127,26.7922724 85.9104127,26.7922724 L80.8650651,17.3990892 L82.2523419,14.926791 C82.2523419,14.926791 86.0189148,19.5691315 88.5454637,19.6621334 C90.9015093,19.7551352 92.4437892,18.1741043 92.691794,14.4772823 C93.0095501,9.89694296 90.3357484,8.14540881 88.6229652,8.52516622 C85.9646638,9.07542695 82.3220933,13.0202539 82.3220933,13.0202539 L80.8805654,10.6409575 C80.8805654,10.6409575 85.4996548,6.308623 84.3371323,3.06130969 C83.2521113,0.0465009066 79.2917846,0 79.2917846,0 C79.2917846,0 75.1919553,0.302255893 74.2774376,3.06130969 C73.1924166,6.308623 77.710754,10.6409575 77.710754,10.6409575 L76.2692261,13.0202539 C76.2692261,13.0202539 72.2701487,8.7499206 69.7125992,8.50191576 C67.9688155,8.32366229 65.7832732,10.3774523 65.8995254,13.8727705 C66.031278,18.2361056 67.6820599,19.7628853 70.0303554,19.6776337 C72.5646544,19.5691315 76.4087288,14.8802901 76.4087288,14.8802901 L77.7340045,17.337088 L72.7971589,26.6605198 C72.7971589,26.6605198 72.7274076,28.1640491 62.0864516,28.1640491 C52.7630212,28.1640491 51.7787521,26.2652621 51.7787521,26.2652621 L47.5239198,17.8098472 L48.6554417,15.3607995 C48.6554417,15.3607995 52.6700194,19.7628853 55.2043184,19.902388 C57.4751124,20.0186403 58.4826319,18.4531098 58.4981322,14.8492895 C58.5291328,9.59468707 55.8088301,9.03667619 54.8943124,9.19942936 C52.0267569,9.69543903 49.2212026,13.7177675 49.2212026,13.7177675 L47.2449144,11.1214668 C47.2449144,11.1214668 51.6935005,7.63389884 50.6627305,4.42533628 C49.6707113,1.29427523 45.5631318,1.24002418 45.5631318,1.24002418 C45.5631318,1.24002418 40.8587908,1.35627644 40.4092821,5.14610033 C40.0682755,7.92840458 43.9743511,11.1214668 43.9743511,11.1214668 L42.0290634,13.7177675 C42.0290634,13.7177675 39.2390094,9.8116913 36.580708,9.26143057 C34.8679248,8.90492362 32.7366336,10.2922007 32.7366336,14.6090348 C32.7366336,18.4221092 33.7674035,20.1891436 36.1079488,19.9178883 C38.6654983,19.6311328 42.5638238,15.3607995 42.5638238,15.3607995 L43.710846,17.8408478 L39.4560136,26.2265113 C39.4560136,26.2265113 38.5259956,27.9857956 28.3345484,28.1485488 C21.6229185,28.2570509 17.2130831,26.3660141 17.2130831,26.3660141 L12.9272502,17.8408478 L14.0432718,15.3840499 C14.0432718,15.3840499 18.0810999,19.8248865 20.6076488,19.9178883 C22.9559443,20.0108902 23.8782121,18.4531098 23.8782121,14.5857844 C23.8782121,9.96669432 21.4446651,8.92042392 20.1736404,9.21492967 C17.2595841,9.89694296 14.624533,13.7565182 14.624533,13.7565182 L12.6637451,11.1447173 C12.6637451,11.1447173 16.5233198,7.83540277 15.0430411,4.70434172 C13.8340177,2.18554261 10.5479541,2.54979971 10.5479541,2.54979971 C10.5479541,2.54979971 7.77340045,2.74355349 6.11486835,3.76657344 L14.0200214,38.8205069 L96.7528726,38.8205069" id="Shape"></path>
            </g>
            <g id="Group" transform="translate(131.032230, 33.408068)" fill="#231F20" fill-rule="nonzero">
                <path d="M15.5003,24.4362264 C22.2429305,24.4362264 27.7222866,18.9568696 27.7222866,12.2219883 C27.7222866,5.47160668 22.2429305,0 15.5003,0 C8.7421692,0 3.2705633,5.47160668 3.2705633,12.2219883 C3.2705633,18.9568696 8.7421692,24.4362264 15.5003,24.4362264" id="Shape"></path>
            </g>
            <g id="Group" transform="translate(131.032230, 25.886402)" fill="#231F20" fill-rule="nonzero">
                <path d="M15.5003,8.47091516 C9.27692955,8.47091516 4.22383175,13.5162635 4.22383175,19.7396349 C4.22383175,25.9552561 9.27692955,31.0006044 15.5003,31.0006044 C21.7081702,31.0006044 26.7535178,25.9552561 26.7535178,19.7396349 C26.7535178,13.5162635 21.7081702,8.47091516 15.5003,8.47091516 M15.5003,32.9071416 C8.22290915,32.9071416 2.3095447,27.0015265 2.3095447,19.7396349 C2.3095447,12.4699931 8.22290915,6.56437799 15.5003,6.56437799 C22.7699407,6.56437799 28.6833052,12.4699931 28.6833052,19.7396349 C28.6833052,27.0015265 22.7699407,32.9071416 15.5003,32.9071416" id="Shape"></path>
            </g>
            <g id="Group" transform="translate(64.632680, 220.538664)" fill="#231F20" fill-rule="nonzero">
                <path d="M7.75015,13.8650203 L13.8340177,13.8650203 L13.8340177,11.4469732 C13.2760069,10.4704541 12.655995,9.13742815 12.0437331,7.75015111 L7.75015,7.75015111 L7.75015,13.8650203 Z M14.7950363,15.7715575 L6.7891314,15.7715575 C6.25437105,15.7715575 5.8281128,15.3452992 5.8281128,14.8260391 L5.8281128,6.80463267 C5.8281128,6.26987224 6.25437105,5.84361393 6.7891314,5.84361393 L12.6714952,5.84361393 C13.0512526,5.84361393 13.4000093,6.06836832 13.5472622,6.41712512 C14.2370255,7.97490549 14.9422892,9.51718556 15.6630531,11.0439653 L15.7560549,14.8260391 C15.7560549,15.3452992 15.3220465,15.7715575 14.7950363,15.7715575 Z" id="Shape"></path>
            </g>
            <g id="Group" transform="translate(205.924380, 220.538664)" fill="#231F20" fill-rule="nonzero">
                <path d="M7.75015,13.8650203 L13.8805187,13.8650203 L13.8805187,7.75015111 L9.89694155,7.75015111 C9.18392775,9.37768284 8.45541365,10.974214 7.7036491,12.5474946 L7.75015,13.8650203 Z M14.8415373,15.7715575 L6.82788215,15.7715575 C6.30087195,15.7715575 5.86686355,15.3452992 5.86686355,14.8260391 L5.86686355,12.1289865 C6.79688155,9.97444447 7.6106473,8.20741002 8.4011626,6.40162481 C8.5561656,6.06836832 8.90492235,5.84361393 9.27692955,5.84361393 L14.8415373,5.84361393 C15.3840478,5.84361393 15.810306,6.26987224 15.810306,6.80463267 L15.810306,14.8260391 C15.810306,15.3452992 15.3840478,15.7715575 14.8415373,15.7715575 Z" id="Shape"></path>
            </g>
            <g id="Group" transform="translate(80.800230, 258.748342)" fill="#231F20" fill-rule="nonzero">
                <path d="M15.5003,28.1330485 L21.5686674,28.1330485 L21.5686674,21.9406778 C21.5686674,21.4059174 22.0026758,20.979659 22.529686,20.979659 L28.7143057,20.979659 L28.7143057,19.1118726 C27.4742817,17.7555962 26.2342578,16.3528188 24.9709833,14.9035406 L22.529686,14.9035406 C22.0026758,14.9035406 21.5686674,14.461782 21.5686674,13.9425218 L21.5686674,10.8579617 C20.7394014,9.8426919 19.9101353,8.80417166 19.0886195,7.75015111 L15.5003,7.75015111 L15.5003,13.9425218 C15.5003,14.461782 15.0662916,14.9035406 14.5470315,14.9035406 L8.3546617,14.9035406 L8.3546617,20.979659 L14.5470315,20.979659 C15.0662916,20.979659 15.5003,21.4059174 15.5003,21.9406778 L15.5003,28.1330485 Z M22.529686,30.0395857 L14.5470315,30.0395857 C14.0122712,30.0395857 13.5860129,29.6133274 13.5860129,29.0940673 L13.5860129,22.8939464 L7.40139325,22.8939464 C6.87438305,22.8939464 6.44037465,22.4676881 6.44037465,21.9406778 L6.44037465,13.9425218 C6.44037465,13.4155116 6.87438305,12.9815031 7.40139325,12.9815031 L13.5860129,12.9815031 L13.5860129,6.80463267 C13.5860129,6.26987224 14.0122712,5.84361393 14.5470315,5.84361393 L19.5691287,5.84361393 C19.8558843,5.84361393 20.1348897,5.9753665 20.3131431,6.20012088 C21.2974122,7.45564536 22.2971816,8.69566954 23.2737004,9.90469311 C23.4132031,10.0829466 23.4907046,10.2922007 23.4907046,10.5247052 L23.4907046,12.9815031 L25.420492,12.9815031 C25.7072475,12.9815031 25.9630025,13.1055055 26.1412559,13.3147596 C27.5750337,14.9655418 28.9778109,16.5543228 30.3883381,18.0888527 C30.5510913,18.2748563 30.6363429,18.4996107 30.6363429,18.7553657 L30.6363429,21.9406778 C30.6363429,22.4676881 30.2100847,22.8939464 29.6753244,22.8939464 L23.4907046,22.8939464 L23.4907046,29.0940673 C23.4907046,29.6133274 23.0644464,30.0395857 22.529686,30.0395857 Z" id="Shape"></path>
            </g>
            <g id="Group" transform="translate(104.307230, 281.542930)" fill="#231F20" fill-rule="nonzero">
                <path d="M15.5003,28.1330485 L21.5841678,28.1330485 L21.5841678,21.9406778 C21.5841678,21.4059174 22.0181762,20.9641587 22.5451864,20.9641587 L28.7143058,20.9641587 L28.7143058,18.5538617 C27.334779,17.4223397 25.8777508,16.2133161 24.335471,14.8957904 L22.5451864,14.8957904 C22.0181762,14.8957904 21.5841678,14.461782 21.5841678,13.9425218 L21.5841678,12.4932436 C19.9256357,11.0129647 18.1973522,9.43968405 16.430318,7.75015111 L15.5003,7.75015111 L15.5003,13.9425218 C15.5003,14.461782 15.0740417,14.8957904 14.5392814,14.8957904 L8.3546617,14.8957904 L8.3546617,20.9641587 L14.5392814,20.9641587 C15.0740417,20.9641587 15.5003,21.4059174 15.5003,21.9406778 L15.5003,28.1330485 Z M22.5451864,30.0395857 L14.5392814,30.0395857 C14.0045211,30.0395857 13.5782628,29.6133274 13.5782628,29.0940673 L13.5782628,22.8939464 L7.3936431,22.8939464 C6.85888275,22.8939464 6.42487435,22.4754382 6.42487435,21.9406778 L6.42487435,13.9425218 C6.42487435,13.4155116 6.85888275,12.9660028 7.3936431,12.9660028 L13.5782628,12.9660028 L13.5782628,6.80463267 C13.5782628,6.26987224 14.0045211,5.84361393 14.5392814,5.84361393 L16.8100754,5.84361393 C17.0658303,5.84361393 17.2983348,5.93661575 17.4765883,6.09936892 C19.4451264,7.97490549 21.3516633,9.71093934 23.1729485,11.3307209 C23.3899527,11.5167245 23.506205,11.7724795 23.506205,12.0592351 L23.506205,12.9660028 L24.6919779,12.9660028 C24.9167323,12.9660028 25.1414866,13.0512545 25.3197401,13.1985073 C27.0790241,14.717537 28.7298061,16.0893137 30.2875862,17.3525883 C30.5045904,17.538592 30.6440931,17.8020971 30.6440931,18.0966028 L30.6440931,21.9406778 C30.6440931,22.4754382 30.2100847,22.8939464 29.6830745,22.8939464 L23.506205,22.8939464 L23.506205,29.0940673 C23.506205,29.6133274 23.0799467,30.0395857 22.5451864,30.0395857 Z" id="Shape"></path>
            </g>
            <g id="Group" transform="translate(57.905580, 197.595065)" fill="#231F20" fill-rule="nonzero">
                <path d="M7.75015,14.4540318 L13.175255,14.4540318 C12.6714952,12.5087439 12.1599853,10.4859544 11.6949763,8.36241304 L7.75015,8.36241304 L7.75015,14.4540318 Z M16.6008213,23.4984582 L13.9347697,23.4984582 C13.4077595,23.4984582 12.9737511,23.0721998 12.9737511,22.5374394 L12.9737511,16.360569 L6.7891314,16.360569 C6.25437105,16.360569 5.8281128,15.9343107 5.8281128,15.4150505 L5.8281128,7.40914446 C5.8281128,6.87438403 6.25437105,6.45587587 6.7891314,6.45587587 L12.4622412,6.45587587 C12.9117499,6.45587587 13.2992574,6.76588192 13.4077595,7.20764053 C14.6632838,12.873001 16.0350603,17.9338497 17.5075888,22.2351835 C17.6005907,22.5296893 17.5618399,22.8474455 17.3758363,23.1032004 C17.1975828,23.3589554 16.895327,23.4984582 16.6008213,23.4984582 Z" id="Shape"></path>
            </g>
            <g id="Group" transform="translate(151.336230, 281.542930)" fill="#231F20" fill-rule="nonzero">
                <path d="M15.5003,28.1330485 L21.5609173,28.1330485 L21.5609173,21.9406778 C21.5609173,21.4059174 21.9871756,20.9641587 22.5219359,20.9641587 L28.7065556,20.9641587 L28.7065556,14.8957904 L22.5219359,14.8957904 C21.9871756,14.8957904 21.5609173,14.461782 21.5609173,13.9425218 L21.5609173,7.75015111 L20.4371456,7.75015111 C18.7398627,9.36218254 17.0813306,10.8812122 15.5003,12.30724 L15.5003,13.9425218 C15.5003,14.461782 15.0740418,14.8957904 14.5392814,14.8957904 L12.5319926,14.8957904 C11.0749644,16.1435648 9.67993735,17.3138376 8.3546617,18.3911086 L8.3546617,20.9641587 L14.5392814,20.9641587 C15.0740418,20.9641587 15.5003,21.4059174 15.5003,21.9406778 L15.5003,28.1330485 Z M22.5219359,30.0395857 L14.5392814,30.0395857 C14.0045211,30.0395857 13.5782628,29.6133274 13.5782628,29.0940673 L13.5782628,22.8939464 L7.3936431,22.8939464 C6.85888275,22.8939464 6.42487435,22.4754382 6.42487435,21.9406778 L6.42487435,17.9415998 C6.42487435,17.6393439 6.56437705,17.3680886 6.79688155,17.182085 C8.28491035,15.9808116 9.8736911,14.6477856 11.5477235,13.1985073 C11.7182268,13.0512545 11.9429812,12.9660028 12.1677355,12.9660028 L13.5782628,12.9660028 L13.5782628,11.8809816 C13.5782628,11.6019762 13.7022652,11.3307209 13.9037691,11.1447173 C15.655303,9.58693692 17.4998387,7.89740398 19.3986255,6.09936892 C19.5691288,5.93661575 19.8016333,5.84361393 20.0573882,5.84361393 L22.5219359,5.84361393 C23.0489461,5.84361393 23.4829545,6.26987224 23.4829545,6.80463267 L23.4829545,12.9660028 L29.6675742,12.9660028 C30.1868343,12.9660028 30.6130925,13.4155116 30.6130925,13.9425218 L30.6130925,21.9406778 C30.6130925,22.4754382 30.1868343,22.8939464 29.6675742,22.8939464 L23.4829545,22.8939464 L23.4829545,29.0940673 C23.4829545,29.6133274 23.0489461,30.0395857 22.5219359,30.0395857 Z" id="Shape"></path>
            </g>
            <g id="Group" transform="translate(174.833230, 258.748342)" fill="#231F20" fill-rule="nonzero">
                <path d="M15.5003,28.1330485 L21.5686675,28.1330485 L21.5686675,21.9406778 C21.5686675,21.4059174 22.0026759,20.979659 22.5296861,20.979659 L28.7065556,20.979659 L28.7065556,14.9035406 L22.5296861,14.9035406 C22.0026759,14.9035406 21.5686675,14.461782 21.5686675,13.9425218 L21.5686675,7.75015111 L17.7788441,7.75015111 C17.0193294,8.71891999 16.2598147,9.67993873 15.5003,10.617707 L15.5003,13.9425218 C15.5003,14.461782 15.0740418,14.9035406 14.5392814,14.9035406 L11.8964803,14.9035406 C10.7107073,16.2753173 9.5326845,17.6083433 8.3546617,18.9026185 L8.3546617,20.979659 L14.5392814,20.979659 C15.0740418,20.979659 15.5003,21.4059174 15.5003,21.9406778 L15.5003,28.1330485 Z M22.5296861,30.0395857 L14.5392814,30.0395857 C14.0045211,30.0395857 13.5782628,29.6133274 13.5782628,29.0940673 L13.5782628,22.8939464 L7.38589295,22.8939464 C6.85888275,22.8939464 6.42487435,22.4676881 6.42487435,21.9406778 L6.42487435,18.5461116 C6.42487435,18.3058569 6.5256263,18.0578521 6.6806293,17.8873488 C8.02140525,16.4070699 9.3776815,14.9035406 10.7184575,13.3302599 C10.9044611,13.1055055 11.1757163,12.9815031 11.4547217,12.9815031 L13.5782628,12.9815031 L13.5782628,10.2844505 C13.5782628,10.0596961 13.6480142,9.8426919 13.8030172,9.66443843 C14.725285,8.53291637 15.6398027,7.37814385 16.5543204,6.20012088 C16.7325739,5.9753665 17.0193294,5.84361393 17.3138351,5.84361393 L22.5296861,5.84361393 C23.0644464,5.84361393 23.4907047,6.26987224 23.4907047,6.80463267 L23.4907047,12.9815031 L29.6675742,12.9815031 C30.2023346,12.9815031 30.6285928,13.4155116 30.6285928,13.9425218 L30.6285928,21.9406778 C30.6285928,22.4676881 30.2023346,22.8939464 29.6675742,22.8939464 L23.4907047,22.8939464 L23.4907047,29.0940673 C23.4907047,29.6133274 23.0644464,30.0395857 22.5296861,30.0395857 Z" id="Shape"></path>
            </g>
            <g id="Group" transform="translate(213.668380, 197.637450)" fill="#231F20" fill-rule="nonzero">
                <path d="M7.75015,14.4385315 L13.3922592,14.4385315 L13.3922592,8.36241304 L9.2381788,8.36241304 C8.7576695,10.4859544 8.2616599,12.5087439 7.75015,14.4385315 M7.21538965,23.4984582 L4.31683355,23.4984582 C4.0145777,23.4984582 3.720072,23.3512053 3.5340684,23.1032004 C3.35581495,22.8396953 3.30931405,22.5296893 3.410066,22.2351835 C4.8825945,17.9338497 6.26987135,12.873001 7.52539565,7.19214023 C7.6261476,6.75038161 8.00590495,6.44037557 8.4631638,6.44037557 L14.3532778,6.44037557 C14.8880381,6.44037557 15.3142964,6.87438403 15.3142964,7.40914446 L15.3142964,15.4150505 C15.3142964,15.9343107 14.8880381,16.3528188 14.3532778,16.3528188 L8.17640825,16.3528188 L8.17640825,22.5374394 C8.17640825,23.0721998 7.75015,23.4984582 7.21538965,23.4984582" id="Shape"></path>
            </g>
            <g id="Group" transform="translate(54.474580, 106.406999)" fill="#231F20" fill-rule="nonzero">
                <path d="M7.75015,7.71140035 C7.94390375,16.8953294 9.8271902,88.1424685 23.149698,119.313576 C44.2223559,168.542536 86.6234265,197.729605 91.7695261,201.139672 C96.931126,197.729605 139.339947,168.542536 160.397104,119.313576 C173.727362,88.1424685 175.602899,16.8953294 175.804403,7.71140035 L7.75015,7.71140035 Z M91.7695261,203.418216 L91.2657664,203.09271 C90.7930072,202.798204 43.9588508,172.812869 21.3826638,120.065341 C7.04488635,86.5459374 5.8281128,7.57189763 5.8126125,6.76588192 L5.7971122,5.79711303 L177.74194,5.79711303 L177.73419,6.76588192 C177.72644,7.57189763 176.501916,86.5459374 162.164139,120.065341 C139.611202,172.812869 92.7615453,202.798204 92.281036,203.09271 L91.7695261,203.418216 Z" id="Shape"></path>
            </g>
            <g id="Group" transform="translate(129.853230, 130.037598)" fill="#231F20" fill-rule="nonzero">
                <path d="M15.5003,8.07565745 L9.18392775,7.37814385 C7.19988935,7.12238887 5.9831158,6.40937496 5.9831158,6.40937496 C5.44835545,6.35512391 4.960096,7.15338947 5.115099,7.64164899 C5.115099,7.64164899 7.1456383,8.57941727 8.9436731,8.81967196 C8.99792415,8.83517226 16.5310699,9.47068465 16.5310699,9.47068465 L15.5003,8.07565745 Z" id="Shape"></path>
            </g>
            <g id="Group" transform="translate(66.195080, 117.371166)" fill="#231F20" fill-rule="nonzero">
                <path d="M7.75015,2.26304412 C7.75015,2.26304412 7.13788815,11.1137167 8.5716659,16.7480765 C10.0829452,22.669192 14.206025,31.0006044 14.206025,31.0006044 C14.206025,31.0006044 16.3683168,28.412054 20.8014026,24.2967237 C25.2422386,20.1736433 30.4658397,20.6851533 30.4658397,20.6851533 L38.1849891,20.6464025 L38.1849891,12.9350022 L30.3728379,12.9350022 C30.3728379,12.9350022 22.8474422,12.617246 18.6236105,10.0364457 C14.206025,7.34714325 7.75015,2.26304412 7.75015,2.26304412" id="Shape"></path>
            </g>
            <g id="Group" transform="translate(134.350230, 0.447354)" fill="#231F20" fill-rule="nonzero">
                <path d="M15.5003,30.8998525 L15.5003,21.646172 L22.5529365,21.646172 L22.5529365,15.3995502 L15.3607973,15.3995502 L15.3607973,7.7346508 L8.9281728,7.7346508 L8.9281728,15.3995502 L1.72828345,15.3995502 L1.72828345,21.646172 L8.79642025,21.646172 L8.79642025,30.9153528 C9.8891914,30.6518476 11.005213,30.4813443 12.1677355,30.4813443 C13.3225079,30.4813443 14.4230291,30.6518476 15.5003,30.8998525" id="Shape"></path>
            </g>
            <g id="Group" transform="translate(82.425080, 65.368970)" fill="#231F20" fill-rule="nonzero">
                <path d="M23.25045,3.72007253 C23.25045,3.72007253 18.0655997,4.55708885 11.4469716,7.39364416 C5.2391014,10.0441958 1.3175255,13.1442563 1.3175255,13.1442563 C1.3175255,13.1442563 1.7360336,14.4927826 1.5035291,15.5003022 C1.5035291,15.5003022 6.37837345,11.5477251 12.6482448,8.95917468 C18.5306087,6.51787708 23.5449557,5.57235865 23.5449557,5.57235865 L23.25045,3.72007253 Z" id="Shape"></path>
            </g>
            <g id="Group" transform="translate(115.118530, 60.414940)" fill="#231F20" fill-rule="nonzero">
                <path d="M0,7.45564536 L0.2015039,9.35443238 C0.2015039,9.35443238 13.6867649,7.88190367 26.3660103,7.7036502 L26.3195094,5.85136409 C18.809614,5.9288656 5.23135125,6.80463267 0,7.45564536" id="Shape"></path>
            </g>
            <g id="Group" transform="translate(179.515380, 64.782637)" fill="#231F20" fill-rule="nonzero">
                <path d="M7.75015,4.43308643 C7.75015,4.43308643 13.0357523,5.14610033 19.6543804,7.98265564 C25.8545004,10.6254572 29.2335658,13.3147596 29.2335658,13.3147596 C29.2335658,13.3147596 28.7143057,14.4850324 28.8460583,15.5003022 C28.8460583,15.5003022 24.7229785,12.1367366 18.4608573,9.54043601 C12.5862436,7.10688856 7.440144,6.28537255 7.440144,6.28537255 L7.75015,4.43308643 Z" id="Shape"></path>
            </g>
            <g id="Group" transform="translate(146.842930, 60.427302)" fill="#231F20" fill-rule="nonzero">
                <path d="M31.0006,7.46339552 L30.8068462,9.36993269 C30.8068462,9.36993269 17.0658303,7.89740398 4.37883475,7.7346508 L4.50283715,5.84361393 C12.0204826,5.91336529 25.7692487,6.82788312 31.0006,7.46339552" id="Shape"></path>
            </g>
            <g id="Group" transform="translate(80.995180, 116.991683)" fill="#231F20" fill-rule="nonzero">
                <path d="M69.75135,23.0334491 L68.9840851,20.6386524 L75.9127192,21.4291678 L76.4552297,23.8394648 L69.75135,23.0334491 Z M68.0928179,14.8647898 L71.1541271,12.7024977 L80.9348164,14.8337892 L81.3455744,16.3993197 C80.1985522,15.8645593 76.4939805,15.0430433 76.4939805,15.0430433 C76.0212213,16.8333282 75.3004574,16.9883312 74.8974496,17.1898352 C74.6726952,17.3060874 73.0451638,17.4300898 72.2391481,17.0735829 C71.0921259,16.5620729 71.0766256,14.461782 71.0766256,14.461782 C69.6970989,14.8105388 68.72058,15.7173064 68.72058,15.7173064 L68.0928179,14.8647898 Z M53.6775389,43.7341027 C52.4297647,44.3851154 47.9191774,52.4840233 47.9191774,52.4840233 L46.6481528,51.8717614 C47.4231678,50.3527317 51.3834945,43.393096 52.9412746,42.5250791 C54.3595521,41.7268136 59.7149057,41.184303 62.9467183,40.8742969 L63.0474702,42.2460737 C63.0474702,42.2460737 55.4368229,42.827335 53.6775389,43.7341027 Z M31.0858516,83.3218745 L27.90054,81.1750827 L27.8075382,73.6961869 L23.7774602,67.139559 L22.3049317,67.240311 L24.2812199,71.3091403 L22.3126818,74.8509594 L24.1184668,79.4312987 L22.6614386,80.8650766 L20.1271395,77.7495159 L20.1271395,40.3162861 L23.4907046,42.160822 L22.3126818,44.4006157 L24.2657196,45.8188933 L25.8777508,45.2066314 L41.8430598,57.2503662 L40.8045398,61.0091895 L45.5941324,60.5596807 L31.0858516,83.3218745 Z M20.5688981,89.552996 L20.5921485,84.7479023 C20.5921485,84.7479023 23.7464596,84.4921474 23.8317112,86.3754341 C23.9324632,88.1037178 20.5688981,89.552996 20.5688981,89.552996 Z M89.5219826,17.1433342 L90.986761,17.8950989 L90.886009,19.5381309 L89.0802241,21.1501624 L88.6074649,19.3211267 L87.3131899,17.9260995 L89.5219826,17.1433342 Z M133.597086,64.9462663 C133.597086,64.9462663 130.233521,65.752282 127.830974,64.6672608 C127.11796,64.3495046 124.149653,63.6209904 123.676894,63.7139922 C121.568853,63.8147442 119.654566,64.4270061 119.654566,64.4270061 C119.654566,64.4270061 122.126864,59.8389167 128.272733,54.36731 C134.410851,48.8957033 142.734513,37.4099794 140.324216,27.1100286 C137.921669,16.8023276 132.341561,13.4775128 125.157172,13.5627644 C117.252019,13.6790167 113.028188,15.7405569 110.540389,21.7546742 C109.54062,24.1029699 110.214883,26.3660141 109.463119,29.3033213 C109.385617,29.6133274 107.781336,32.2328784 106.223556,34.3486697 C104.921531,36.1699552 102.681737,42.8738359 102.681737,42.8738359 L103.565254,42.7188329 L109.587121,36.5729631 L110.005629,40.0760314 C110.005629,40.0760314 107.145824,43.7573531 103.216498,48.7252 C100.697699,51.8950118 97.0783789,59.1724037 96.2956137,61.8152052 L97.8921446,61.4664484 C97.8921446,61.4664484 100.961204,57.0101115 109.486369,50.7014885 C112.237672,48.6476985 116.903263,45.5398879 117.864281,42.4398275 C118.8408,39.3552673 118.089036,35.9374507 118.089036,35.9374507 C118.089036,35.9374507 120.37533,37.7664863 121.266597,40.773545 C122.150114,43.7573531 121.661855,46.2451516 121.661855,46.2451516 C121.661855,46.2451516 124.335656,39.1305129 123.800896,35.2321869 C122.97938,29.4273237 121.506852,28.1795494 118.771049,27.489786 C118.089036,27.3270328 115.616738,27.2650316 115.616738,27.2650316 C115.616738,27.2650316 113.6637,20.6154019 120.243577,18.4453596 C124.847166,16.9185799 130.380773,16.7015756 134.131846,22.9171968 C138.092173,29.4505742 135.984132,37.3014773 132.79107,41.2695546 C129.373254,45.4778867 123.242885,51.1897481 111.989667,58.9166487 C103.84426,64.5122578 97.1326299,71.8671512 98.17115,79.6483029 C99.5351764,89.5762465 107.696084,101.426228 111.640911,107.424844 C115.585737,113.415711 117.593026,120.747354 113.973706,125.901205 C110.55589,130.77605 102.410482,132.884091 97.1326299,129.109767 C92.8390468,126.017457 87.6774469,117.492291 83.4226146,105.890315 C79.9040465,96.3498785 75.6027132,91.0022743 75.6027132,91.0022743 L76.2924766,58.211385 L78.640772,59.3274067 C78.640772,59.3274067 78.9352777,56.0568429 79.8730459,53.545794 C81.1053197,50.2597299 85.3756524,44.6641208 87.9564523,38.3012468 C90.5605027,31.9306226 90.5140018,23.0256989 90.5140018,23.0256989 C90.5140018,23.0256989 92.3120366,21.4834189 93.2575549,20.00314 L93.3738072,16.9650808 L90.7387562,15.2445472 L90.8162577,15.2135466 L95.8616053,7.50989642 C94.9470876,7.10688856 92.7150444,8.19965987 92.7150444,8.19965987 C92.7150444,8.19965987 90.5605027,5.54910819 89.2584775,8.052407 C88.250958,10.0674463 90.3202481,10.6254572 90.3202481,10.6254572 L89.3514793,12.051485 L83.9496248,10.6719581 L83.4923659,8.70341969 C83.4923659,8.70341969 85.9646638,10.3464517 86.6311767,7.82765262 C87.2201881,5.58785895 84.5153857,5.75061212 84.5153857,5.75061212 C84.5153857,5.75061212 85.3601521,4.14633084 83.0351071,3.49531815 C80.7798134,2.89080636 80.7643131,4.78959338 80.7643131,4.78959338 C80.7643131,4.78959338 78.4237678,3.24731331 77.8890075,5.51035744 C77.3697474,7.7036502 79.7955444,7.75015111 79.7955444,7.75015111 L78.2842651,9.36993269 L73.1846664,8.37791335 L72.5801547,6.54887768 C72.5801547,6.54887768 75.4554604,6.54887768 75.0524526,4.22383235 C74.5874436,1.51127947 71.8593908,3.03030908 71.8593908,3.03030908 C71.8593908,3.03030908 71.0611253,1.34852629 69.3870929,1.82903566 L70.1853584,9.98994478 L88.2432079,14.1982768 L86.1971683,14.9810421 L69.7591001,11.183468 L64.171242,15.1902962 L64.7602534,19.4993802 L67.4185548,22.8706959 L65.155511,26.5907684 L73.680676,27.4355349 L72.7351577,29.6520781 C72.7351577,29.6520781 68.8135818,30.0473358 62.2027039,31.7291186 C60.4434198,32.1708772 49.4769576,39.6187725 46.4621492,42.4785782 C44.7106153,44.1448607 43.6720952,46.7566616 43.6720952,46.7566616 L31.0006,40.2077839 L30.3340871,37.6269836 L27.4665316,38.4019987 L24.4362229,36.6427144 C24.4362229,36.6427144 27.1565256,33.441902 28.3965496,30.1015869 C29.3265676,27.5130364 27.6680355,23.7929639 27.6680355,23.7929639 L26.5520139,23.07995 L26.404761,27.7687914 L23.3202013,28.9235639 L21.3981641,33.9999129 L20.4216452,33.3566504 L20.4216452,9.34668223 L16.1823132,9.34668223 L16.1823132,30.8068506 C16.1823132,30.8068506 15.8180561,30.2255893 12.8187481,29.9465839 C9.81944005,29.6520781 7.3471422,30.8921023 7.3471422,30.8921023 L6.37837345,32.0933757 L11.1369655,32.6746371 L11.9739817,35.7591972 L16.1823132,36.9217199 L16.1823132,39.5645214 C16.1823132,39.5645214 14.3300273,39.0685117 11.8577295,41.1998033 C9.02892475,43.6566012 8.1531578,46.9426652 8.1531578,46.9426652 L8.4631638,48.2291903 C9.19942805,47.4076743 10.5712046,45.1291299 11.1834664,45.2608825 C12.9737511,45.6793906 13.330258,45.7568921 14.570282,46.5086568 L16.1823132,45.1291299 L16.1823132,78.2067748 C16.1823132,78.2067748 13.8107673,77.3697585 12.1367349,77.9355195 C11.1369655,78.2532757 9.94344245,78.423779 9.1916779,78.8887881 L8.4631638,80.2450646 C8.4631638,80.2450646 11.6484754,79.446799 12.8342484,80.4853192 C13.8107673,81.3533362 13.3845091,82.1361014 13.8960189,83.0428691 C14.159524,83.500128 15.345297,83.9418866 15.7173042,84.5696489 L15.6320526,89.9017528 L13.1597547,94.063584 L12.9350003,96.2878773 L16.1823132,93.5908248 L16.1823132,105.115299 L20.4216452,105.115299 L20.4216452,94.3658399 L22.2739311,94.6370952 L27.6215346,88.6849791 C27.6215346,88.6849791 30.5743417,88.7159797 31.2951057,90.1420075 C31.7601147,91.0332749 31.465609,92.7693087 32.0158696,93.4900728 C32.5738804,93.7923287 33.1318912,94.0325834 33.1318912,94.0325834 L60.815427,60.8386862 L49.4614573,74.4944524 L51.6237491,80.2450646 L56.9791028,86.1584298 L58.7693874,96.9233897 L45.0981228,103.387016 C45.0981228,103.387016 43.8890994,106.394074 42.935831,111.912182 C41.9748124,117.407039 41.4090514,121.654122 41.4090514,121.654122 L42.5250731,126.226711 L25.9552523,124.459677 L24.7462289,120.049841 C24.7462289,120.049841 26.815519,117.631793 28.3267982,114.36123 C29.8380775,111.113916 28.0322925,106.835833 28.0322925,106.835833 L26.9860223,105.63456 L26.5830145,110.579156 L23.7774602,111.191418 L23.1109473,116.360769 L21.5144164,116.236766 C21.5144164,116.236766 20.3441437,113.020454 17.0038291,110.896912 C13.5705126,108.72687 9.9046917,109.703389 9.9046917,109.703389 L9.2536791,110.501654 L14.1517739,111.966433 L13.3535084,115.252497 L18.964617,117.546542 L18.2516032,118.786566 L13.1442544,119.677833 L12.5397427,121.437118 L7.74239985,121.196863 L8.23840945,122.07263 C8.23840945,122.07263 10.4859529,124.064419 14.0665223,124.064419 C17.6548417,124.064419 19.9333858,122.522139 19.9333858,122.522139 L22.0336764,127.70699 L19.4373762,130.326541 L20.2511419,131.272059 L22.6459383,131.016304 L41.1377962,134.89138 L44.640864,137.875188 L50.7014813,135.162635 C50.7014813,135.162635 50.6704807,132.209828 51.8640038,130.551295 C52.6390188,129.466274 54.0572962,127.551987 55.0105647,126.280962 C54.9640638,126.203461 52.1430092,121.243364 51.67025,120.228094 C50.3139738,117.407039 50.1822212,110.114147 50.430226,108.881873 C51.1354897,105.572558 61.3424372,96.9001393 61.3424372,96.9001393 L64.1944924,91.0022743 L65.4577669,91.5912858 L62.5979615,97.8844085 C56.0335845,102.945257 52.0500074,107.998356 51.8097528,109.416633 C51.67025,110.2924 51.7012506,117.213285 53.011026,119.677833 C53.5612866,120.747354 55.9483328,125.033188 55.9483328,125.033188 C55.9483328,125.033188 58.5523832,128.683509 62.3964576,132.264079 C66.2250317,135.867899 68.0540671,138.177444 68.8290821,141.409257 C70.061356,146.508857 70.526365,154.266758 70.4411133,160.094871 C70.4023626,162.481918 70.4721139,164.582209 70.4721139,164.582209 L66.4342858,165.504477 C66.4342858,165.504477 63.295475,159.854617 61.7996961,159.219104 C58.6066343,157.816327 55.8940818,156.723556 55.8940818,156.723556 L54.5300554,157.204065 L58.0408733,160.079371 L57.6456157,164.388455 L63.2334738,167.876023 C63.2334738,167.876023 60.1256637,169.131548 58.5523832,169.131548 C55.2120686,169.123797 52.6157683,174.533403 52.6157683,174.533403 L52.5382668,175.649425 L56.1730872,173.711887 L59.2886475,175.38592 L64.0317393,171.417842 L65.000508,172.223858 C65.000508,172.223858 64.1479915,175.781177 64.6982522,178.563481 C65.2640131,181.361286 67.3178029,184.197841 67.3178029,184.197841 L68.7438305,184.438096 L67.4418053,179.229994 L70.4411133,176.633694 L69.0925872,171.83635 L73.37067,168.837042 L77.2922459,171.906102 L77.8502567,171.247339 C77.0597414,164.070699 79.2530339,147.307122 79.2530339,147.307122 C79.2530339,147.307122 81.1983215,145.392835 81.3688248,143.796304 C81.5005774,142.432277 81.5005774,139.130713 81.1595708,138.053442 C80.1675516,137.076923 79.2530339,134.441871 79.2530339,134.441871 C79.2530339,134.441871 77.4859997,126.924225 78.0905114,118.554061 C78.2222639,116.624274 78.2610147,114.818489 78.2222639,113.113455 C79.2375336,114.849489 83.546617,122.103631 87.3131899,126.714971 C94.0170696,134.852629 102.053975,136.464661 106.711815,135.077384 C124.591411,129.830531 120.251327,113.043704 120.251327,113.043704 C113.415695,96.063123 114.67897,93.3118193 114.67897,93.3118193 L126.404946,88.3052217 L126.156942,87.5379567 L121.770357,87.7472108 L116.655258,86.7086906 L113.376944,86.7086906 L113.307193,84.9416561 L130.132769,77.4550102 L129.853763,76.5172419 L126.629701,76.8892491 L119.85607,75.4012201 L113.934955,76.6412443 L114.570467,73.6961869 L133.597086,64.9462663 Z M74.5176922,15.8645593 C74.8354484,15.7793077 75.021452,14.7252871 75.021452,14.7252871 L72.3554004,14.2757783 C72.3554004,14.2757783 72.4949031,15.7018061 72.750658,15.7793077 C72.9134112,15.8180584 74.1999361,15.9653113 74.5176922,15.8645593 Z" id="Shape"></path>
            </g>
            <g id="Group" transform="translate(358.898430, 227.889685) scale(-1, 1) rotate(90.000000) translate(-358.898430, -227.889685) translate(227.247180, 221.046055)" stroke="#231F20" stroke-width="1.48393614">
                <path d="M0.0877675,0.0684363045 L263.214732,0.0684363045" id="Shape"></path>
            </g>
            <g id="Group" transform="translate(397.984080, 278.949244)" fill="#231F20" fill-rule="nonzero">
                <path d="M23.25045,34.5501736 C29.3033172,34.5501736 33.8139044,33.5736546 33.8139044,24.1804715 C33.8139044,14.7330373 29.086313,13.6867669 23.1109473,13.6867669 L11.0827145,13.6867669 L11.0827145,34.5501736 L23.25045,34.5501736 Z M3.85182455,7.43239491 L23.25045,7.43239491 C35.2864329,7.43239491 41.0447944,11.4624735 41.0447944,24.056469 C41.0447944,36.5652129 35.0694288,40.7347942 23.1109473,40.7347942 L11.0827145,40.7347942 L11.0827145,58.1183831 L3.85182455,58.1183831 L3.85182455,7.43239491 Z" id="Shape"></path>
            </g>
            <g id="Group" transform="translate(441.961780, 278.871538)" fill="#231F20" fill-rule="nonzero">
                <path d="M38.75075,34.6276751 L38.75075,31.0703558 C38.75075,16.616324 33.1938925,13.1442563 24.1494674,13.1442563 C15.1747937,13.1442563 9.6876875,16.4845714 9.6876875,30.9386032 L9.6876875,34.4881724 C9.6876875,49.0119556 15.3220466,52.569275 24.2889701,52.569275 C33.325645,52.569275 38.75075,49.1592085 38.75075,34.6276751 M2.03828945,32.8916413 C2.03828945,11.1912182 11.6329752,6.6728801 24.2889701,6.6728801 C36.9449651,6.6728801 46.400148,11.0517155 46.400148,32.7521386 C46.400148,54.4370614 36.8054623,58.9553995 24.1494674,58.9553995 C11.4934724,58.9553995 2.03828945,54.5765641 2.03828945,32.8916413" id="Shape"></path>
            </g>
            <g id="Group" transform="translate(495.624530, 282.816704)" fill="#231F20" fill-rule="nonzero">
                <polygon id="Shape" points="0 3.56506951 7.23088995 3.56506951 7.23088995 47.8571831 33.6511513 47.8571831 33.6511513 54.2510577 0 54.2510577"></polygon>
            </g>
            <g id="Group" transform="translate(535.340280, 279.470013)" fill="#231F20">
                <rect id="Rectangle-path" x="0.9145177" y="6.91313479" width="7.3006413" height="50.6859882"></rect>
            </g>
            <g id="Group" transform="translate(543.955080, 284.034184)" fill="#231F20" fill-rule="nonzero">
                <polygon id="Shape" points="23.25045 8.88167317 6.4946257 8.88167317 6.4946257 2.34829579 47.0976615 2.34829579 47.0976615 8.88167317 30.4813399 8.88167317 30.4813399 53.034284 23.25045 53.034284"></polygon>
            </g>
            <g id="Group" transform="translate(597.341480, 279.470013)" fill="#231F20">
                <rect id="Rectangle-path" x="0.76726485" y="6.91313479" width="7.3006413" height="50.6859882"></rect>
            </g>
            <g id="Group" transform="translate(615.779530, 282.816704)" fill="#231F20" fill-rule="nonzero">
                <polygon id="Shape" points="0 3.56506951 31.4268583 3.56506951 31.4268583 10.0984469 7.23088995 10.0984469 7.23088995 24.5602289 26.0017533 24.5602289 26.0017533 31.0238549 7.23088995 31.0238549 7.23088995 47.8571831 31.4268583 47.8571831 31.4268583 54.2510577 0 54.2510577"></polygon>
            </g>
            <g id="Group" transform="translate(645.050080, 284.034184)" fill="#231F20" fill-rule="nonzero">
                <polygon id="Shape" points="23.25045 8.88167317 6.4946257 8.88167317 6.4946257 2.34829579 47.0976615 2.34829579 47.0976615 8.88167317 30.4813399 8.88167317 30.4813399 53.034284 23.25045 53.034284"></polygon>
            </g>
            <g id="Group" transform="translate(695.225530, 280.231628)" fill="#231F20" fill-rule="nonzero">
                <path d="M0,55.0958242 L1.1780228,48.8414523 C3.6115699,49.4692145 11.4004707,50.8564916 16.5465703,50.8564916 C24.3974722,50.8564916 27.5982842,49.6009671 27.5982842,42.8583356 C27.5982842,37.0224718 25.6529965,36.3249582 17.0348297,34.4494217 C3.8905753,31.5276147 0.4185081,29.3730727 0.4185081,19.1506234 C0.4185081,9.34668223 6.6806293,5.5956091 17.7943444,5.5956091 C24.1959683,5.5956091 31.0781015,6.70388071 33.0233892,7.26189159 L31.8376162,13.5162635 C29.5435718,13.1055055 23.2194494,12.1289865 17.6625919,12.1289865 C10.9819626,12.1289865 7.85090195,13.6557662 7.85090195,19.080872 C7.85090195,24.9942373 9.9356923,25.8932548 18.6933618,27.8462929 C29.9620799,30.2720902 35.1779309,32.0158742 35.1779309,42.7885843 C35.1779309,54.1193052 28.6445544,57.2503662 16.4690688,57.2503662 C9.80393975,57.2503662 2.4955483,55.9250904 0,55.0958242" id="Shape"></path>
            </g>
            <g id="Group" transform="translate(752.344480, 279.470013)" fill="#231F20">
                <rect id="Rectangle-path" x="4.73534165" y="6.91313479" width="7.3006413" height="50.6859882"></rect>
            </g>
            <g id="Group" transform="translate(773.567930, 282.816704)" fill="#231F20" fill-rule="nonzero">
                <polygon id="Shape" points="31.0006 3.56506951 39.4095128 3.56506951 20.1581402 23.2427032 40.3085302 54.2510577 31.829866 54.2510577 15.0817919 28.3888035 8.47091395 35.131435 8.47091395 54.2510577 1.17027265 54.2510577 1.17027265 3.56506951 8.47091395 3.56506951 8.47091395 26.5055168"></polygon>
            </g>
            <g id="Group" transform="translate(809.789080, 284.034184)" fill="#231F20" fill-rule="nonzero">
                <polygon id="Shape" points="23.25045 8.88167317 6.4946257 8.88167317 6.4946257 2.34829579 47.0976615 2.34829579 47.0976615 8.88167317 30.4813399 8.88167317 30.4813399 53.034284 23.25045 53.034284"></polygon>
            </g>
            <g id="Group" transform="translate(853.096430, 307.544690)" fill="#231F20">
                <rect id="Rectangle-path" x="2.20879275" y="7.3393931" width="19.2591228" height="6.26212209"></rect>
            </g>
            <g id="Group" transform="translate(866.342080, 284.034184)" fill="#231F20" fill-rule="nonzero">
                <polygon id="Shape" points="23.25045 8.88167317 6.4946257 8.88167317 6.4946257 2.34829579 47.0976615 2.34829579 47.0976615 8.88167317 30.4813399 8.88167317 30.4813399 53.034284 23.25045 53.034284"></polygon>
            </g>
            <g id="Group" transform="translate(908.104530, 279.952590)" fill="#231F20" fill-rule="nonzero">
                <path d="M0,56.1420946 L0.90676755,49.7482199 C4.3090834,50.3062308 9.18392775,50.9959943 12.7954976,50.9959943 C20.925405,50.9959943 21.9019239,47.5859278 21.9019239,38.4795002 L21.9019239,6.43262542 L29.1328138,6.43262542 L29.1328138,39.1770138 C29.1328138,52.9412822 25.2344884,57.4596203 12.7954976,57.4596203 C8.7576695,57.4596203 3.3325645,56.9093596 0,56.1420946" id="Shape"></path>
            </g>
            <g id="Group" transform="translate(946.506530, 282.816704)" fill="#231F20" fill-rule="nonzero">
                <polygon id="Shape" points="0 3.56506951 31.4268583 3.56506951 31.4268583 10.0984469 7.2386401 10.0984469 7.2386401 24.5602289 26.0095034 24.5602289 26.0095034 31.0238549 7.2386401 31.0238549 7.2386401 47.8571831 31.4268583 47.8571831 31.4268583 54.2510577 0 54.2510577"></polygon>
            </g>
            <g id="Group" transform="translate(985.748530, 282.816704)" fill="#231F20" fill-rule="nonzero">
                <polygon id="Shape" points="0 3.56506951 7.09138725 3.56506951 32.5428799 41.2463042 32.5428799 3.56506951 39.4947644 3.56506951 39.4947644 54.2510577 33.1628919 54.2510577 6.9596347 15.5235527 6.9596347 54.2510577 0 54.2510577"></polygon>
            </g>
            <g id="Group" transform="translate(1035.148530, 282.816704)" fill="#231F20" fill-rule="nonzero">
                <polygon id="Shape" points="0 3.56506951 31.4268582 3.56506951 31.4268582 10.0984469 7.2386401 10.0984469 7.2386401 24.5602289 26.0095034 24.5602289 26.0095034 31.0238549 7.2386401 31.0238549 7.2386401 47.8571831 31.4268582 47.8571831 31.4268582 54.2510577 0 54.2510577"></polygon>
            </g>
            <g id="Group" transform="translate(1072.028530, 280.231628)" fill="#231F20" fill-rule="nonzero">
                <path d="M0,55.0958242 L1.1780228,48.8414523 C3.6115699,49.4692145 11.4004706,50.8564916 16.5465702,50.8564916 C24.3974722,50.8564916 27.5982841,49.6009671 27.5982841,42.8583356 C27.5982841,37.0224718 25.6529965,36.3249582 17.0348297,34.4494217 C3.8905753,31.5276147 0.4185081,29.3730727 0.4185081,19.1506234 C0.4185081,9.34668223 6.6806293,5.5956091 17.7943444,5.5956091 C24.1959683,5.5956091 31.0781015,6.70388071 33.0233891,7.26189159 L31.8376162,13.5162635 C29.5435718,13.1055055 23.2194494,12.1289865 17.6625918,12.1289865 C10.9819625,12.1289865 7.85090195,13.6557662 7.85090195,19.080872 C7.85090195,24.9942373 9.9356923,25.8932548 18.6933618,27.8462929 C29.9620799,30.2720902 35.1779308,32.0158742 35.1779308,42.7885843 C35.1779308,54.1193052 28.6445544,57.2503662 16.4690687,57.2503662 C9.80393975,57.2503662 2.4955483,55.9250904 0,55.0958242" id="Shape"></path>
            </g>
            <g id="Group" transform="translate(1103.918080, 284.034184)" fill="#231F20" fill-rule="nonzero">
                <polygon id="Shape" points="23.25045 8.88167317 6.4946257 8.88167317 6.4946257 2.34829579 47.0976616 2.34829579 47.0976616 8.88167317 30.48134 8.88167317 30.48134 53.034284 23.25045 53.034284"></polygon>
            </g>
            <g id="Group" transform="translate(1157.518530, 282.816704)" fill="#231F20" fill-rule="nonzero">
                <polygon id="Shape" points="0 3.56506951 31.4268582 3.56506951 31.4268582 10.0984469 7.2386401 10.0984469 7.2386401 24.5602289 26.0095034 24.5602289 26.0095034 31.0238549 7.2386401 31.0238549 7.2386401 47.8571831 31.4268582 47.8571831 31.4268582 54.2510577 0 54.2510577"></polygon>
            </g>
            <g id="Group" transform="translate(1192.208080, 279.645074)" fill="#231F20" fill-rule="nonzero">
                <path d="M23.25045,33.1551464 C29.7063249,33.1551464 33.8139044,32.1166262 33.8139044,23.1419512 C33.8139044,14.0355237 29.4350697,12.9892533 23.1031971,12.9892533 L11.780228,12.9892533 L11.780228,33.1551464 L23.25045,33.1551464 Z M43.6875955,57.4208695 L35.2786828,57.4208695 L23.4519539,39.339767 L11.780228,39.339767 L11.780228,57.4208695 L4.54933805,57.4208695 L4.54933805,6.73488131 L23.25045,6.73488131 C35.2786828,6.73488131 41.0447944,10.4239532 41.0447944,23.0024485 C41.0447944,32.6048857 37.5029758,36.5652129 31.0393507,38.0222413 L43.6875955,57.4208695 Z" id="Shape"></path>
            </g>
        </g>
    </g>
</svg>