<?xml version="1.0" encoding="utf-8"?>
<!-- Generator: Adobe Illustrator 20.1.0, SVG Export Plug-In . SVG Version: 6.00 Build 0)  -->
<svg version="1.1" id="Layer_1"
	xmlns="http://www.w3.org/2000/svg"
	xmlns:xlink="http://www.w3.org/1999/xlink"
	x="0px"
	y="0px"
	viewBox="0 0 300 55"
	style="enable-background:new 0 0 300 55;"
	xml:space="preserve">
<style type="text/css">
	.st0{fill:#512D6D;}
	.st1{fill:#CB2C30;}
	.st2{fill:#00A3E0;}
</style>
<g>
	<g>
		<polygon class="st0" points="97.7,1.4 74.2,1.4 74,4.9 84,4.9 84,24.3 87.8,24.3 87.8,4.9 97.8,4.9 		"/>
		<path class="st0" d="M134.6,20c-1.4,0.9-3.5,1.4-5.7,1.4c-5,0-7.5-2.1-7.5-6.2c0-4.1,2.4-6,7.5-6c1.9,0,3.9,0.4,5.5,1.1l0.7,0.3
			l0.3-3.3l-0.4-0.2c-2-0.8-4.3-1.3-6.6-1.3c-6.8,0-10.7,3.4-10.7,9.3c0,6,3.9,9.4,10.6,9.4c2.6,0,5.2-0.7,7-1.8l0.3-0.2l-0.4-3.2
			L134.6,20z"/>
		<path class="st0" d="M149.9,5.9c-2.7,0-5.1,0.8-7,2.2l0-1.1V0.1l-3.5,0.3v23.8h3.5V11.6c1.1-1.2,3.5-2.4,6.3-2.4
			c4.2,0,6.2,1.6,6.2,4.9v10.1h3.5V14.1C159,8.8,155.7,5.9,149.9,5.9z"/>
		<path class="st0" d="M173.5,5.9c-2.8,0-5.5,0.9-7.3,2.3l-0.4-2.1L163,6.4v17.9h3.5V11.6c1.4-1.6,4.2-2.4,6.3-2.4
			c4.3,0,6.2,1.6,6.2,4.9v10.1h3.5V14.1C182.6,8.8,179.4,5.9,173.5,5.9z"/>
		<polygon class="st0" points="186.8,24.3 190.3,24.3 190.3,23.3 190.3,6.2 186.8,6.4 		"/>
		<path class="st0" d="M205.9,5.9c-3.1,0-5.7,0.8-7.7,2.3l-0.5-2L195,6.5v22.2h3.7l0-5l0-1.1c1.7,1.4,4.1,2.1,7,2.1
			c6.7,0,10.5-3.3,10.5-9.4C216.1,9.2,212.6,5.9,205.9,5.9z M212.5,15.4c0,4.1-2.4,6.1-7.4,6.1c-3.7,0-5.6-1.4-6.5-2.4v-7.5
			c1.6-1.6,3.8-2.4,6.8-2.4C210.2,9.3,212.5,11.3,212.5,15.4z"/>
		<polygon class="st0" points="259.2,19.8 247.9,1.4 243.9,1.4 243.9,24.3 247.4,24.3 247.4,7.6 247.4,7.3 257.9,24.3 260.5,24.3 
			270.8,7.4 271,7.2 271,24.3 274.5,24.3 274.5,1.4 270.6,1.4 		"/>
		<path class="st0" d="M299.4,19.5l-0.7,0.3c-2.2,1-4.6,1.5-6.9,1.5c-7.2,0-10.3-2.5-10.3-8.5c0-5.7,3.1-8.3,10.1-8.3
			c2.4,0,5.1,0.5,7.1,1.2l0.7,0.3l0.5-3.4l-0.4-0.2c-1.7-0.7-4.9-1.4-7.9-1.4c-11.6,0-14,6.4-14,11.7c0,7.8,4.8,12,13.9,12
			c3.2,0,6.3-0.9,8.1-1.8l0.4-0.2L299.4,19.5z"/>
		<polygon class="st0" points="237.3,11 223.6,11 223.6,5 240.1,5 240,1.4 219.9,1.4 219.8,24.3 223.6,24.3 223.6,14.5 237.4,14.5 
					"/>
		<path class="st0" d="M105.8,5.9c-6.3,0-10.4,3.5-10.4,8.8c0,4.5,2,9.9,11.5,9.9c3,0,5.5-0.6,7.9-1.8l0.4-0.2l-0.5-3L114,20
			c-2.3,1-4.5,1.5-6.9,1.5c-4.8,0-7.5-1.6-8-4.8h16.5l0.2-1c0.1-0.3,0.1-0.8,0.1-1.1C115.9,9.4,111.8,5.9,105.8,5.9z M99,13.3
			c0.5-2.7,2.9-4.2,6.8-4.2c3.7,0,6.2,1.6,6.6,4.2H99z"/>
		<circle class="st0" cx="188.6" cy="2" r="2"/>
	</g>
	<g>
		<path class="st1" d="M31.5,34.8L31.5,34.8L31.5,34.8L31.5,34.8L31.5,34.8v18.9c0,1.2,1.4,1.8,2.3,0.9l24-24.1c0.8-0.8,0.8-2,0-2.8
			l-9.7-9.7L31.5,34.8z"/>
		<path class="st2" d="M61.6,1.4H31.5l16.7,16.7L62.5,3.7C63.4,2.9,62.8,1.4,61.6,1.4z"/>
		<path class="st2" d="M31.5,34.8V1.4H1.3c-1.2,0-1.8,1.4-0.9,2.3L31.5,34.8z"/>
		<polygon class="st0" points="48.1,18.1 31.5,1.4 31.5,34.8 		"/>
	</g>
</g>
</svg>
